<?xml version="1.0" encoding="UTF-8"?> <svg xmlns="http://www.w3.org/2000/svg" width="407" height="458" viewBox="0 0 407 458" fill="none"> <path d="M240.69 60.2695L232.9 130.459C231.57 142.399 227.18 159.659 208.41 156.709C192.31 152.909 189.89 136.929 191.14 125.789C191.73 120.509 192.21 116.099 192.24 115.559C192.24 115.559 174.56 111.889 175.24 94.0595C175.57 85.4495 177.68 67.7495 179.78 51.7695C180.87 43.4912 185.038 35.9271 191.453 30.5828C197.868 25.2385 206.061 22.5061 214.4 22.9295L216.12 23.0095C234.6 24.9995 243.21 41.8495 240.69 60.2695Z" fill="#936760"></path> <path d="M192.239 115.559C200.47 115.95 208.639 113.971 215.779 109.859C215.779 109.859 209.469 122.589 191.779 120.089L192.239 115.559Z" fill="#6F4C47"></path> <path d="M208.999 62.7317C209.309 63.1317 211.549 61.7317 214.509 62.0317C217.469 62.3317 219.509 64.0317 219.859 63.7017C220.039 63.5417 219.749 62.8517 218.859 62.0517C217.669 61.0243 216.186 60.3979 214.619 60.2617C213.073 60.1084 211.519 60.4592 210.189 61.2617C209.259 61.9117 208.889 62.5517 208.999 62.7317Z" fill="#263238"></path> <path d="M208.369 68.8517C208.333 69.4792 208.542 70.0963 208.953 70.5722C209.364 71.0481 209.943 71.3456 210.569 71.4017C210.875 71.4407 211.184 71.4183 211.481 71.3359C211.777 71.2534 212.054 71.1126 212.296 70.9216C212.537 70.7307 212.738 70.4934 212.886 70.2238C213.034 69.9542 213.127 69.6577 213.159 69.3517C213.195 68.7252 212.986 68.1094 212.575 67.6351C212.164 67.1607 211.584 66.8654 210.959 66.8117C210.655 66.7727 210.346 66.7947 210.05 66.8766C209.754 66.9584 209.477 67.0983 209.236 67.2883C208.995 67.4782 208.794 67.7143 208.645 67.9827C208.497 68.2512 208.403 68.5466 208.369 68.8517V68.8517Z" fill="#263238"></path> <path d="M199.09 82.3827C199.09 82.2227 197.43 81.8427 194.69 81.3827C193.99 81.2727 193.34 81.1027 193.24 80.6227C193.226 79.9141 193.424 79.2176 193.81 78.6227L196.15 73.4027C199.4 65.9627 201.79 59.8327 201.49 59.7127C201.19 59.5927 198.31 65.5027 195.06 72.9427C194.266 74.7694 193.516 76.5194 192.81 78.1927C192.323 79.0139 192.145 79.9822 192.31 80.9227C192.397 81.1755 192.542 81.4046 192.733 81.592C192.924 81.7794 193.155 81.92 193.41 82.0027C193.791 82.1307 194.188 82.2048 194.59 82.2227C197.35 82.4327 199.07 82.5327 199.09 82.3827Z" fill="#263238"></path> <path d="M211.67 51.7725C211.88 52.4625 214.3 52.2625 217.12 52.7725C219.94 53.2825 222.19 54.1825 222.59 53.5925C222.78 53.3025 222.41 52.5925 221.52 51.9425C220.343 51.0647 218.97 50.4879 217.52 50.2625C216.08 50.0043 214.598 50.1109 213.21 50.5725C212.14 50.9425 211.59 51.4425 211.67 51.7725Z" fill="#263238"></path> <path d="M183.88 51.7698C184.13 52.3398 186.51 52.0298 189.31 52.2898C192.11 52.5498 194.399 53.1998 194.759 52.6698C194.919 52.4198 194.52 51.8898 193.6 51.3398C192.366 50.6629 191.002 50.2572 189.6 50.1498C188.167 50.0158 186.722 50.1862 185.36 50.6498C184.29 50.9998 183.78 51.4898 183.88 51.7698Z" fill="#263238"></path> <path d="M238.57 73.3925C238.88 73.2725 251 70.3925 250 82.5525C249 94.7125 237 91.1925 237 90.8425C237 90.4925 238.57 73.3925 238.57 73.3925Z" fill="#936760"></path> <path d="M241.09 86.5418C241.15 86.5418 241.29 86.7118 241.64 86.9018C242.125 87.1599 242.692 87.2173 243.22 87.0618C244.54 86.7018 245.79 84.7518 246.03 82.5618C246.148 81.5226 246.032 80.4702 245.69 79.4818C245.607 79.0922 245.431 78.7284 245.177 78.4218C244.922 78.1153 244.597 77.875 244.23 77.7218C243.991 77.6386 243.731 77.6411 243.494 77.7286C243.256 77.8162 243.057 77.9834 242.93 78.2018C242.74 78.5218 242.8 78.7718 242.73 78.7918C242.66 78.8118 242.49 78.5618 242.63 78.0718C242.719 77.7756 242.91 77.5205 243.17 77.3518C243.522 77.1245 243.95 77.0454 244.36 77.1318C244.851 77.2728 245.298 77.5369 245.659 77.8992C246.019 78.2615 246.281 78.7099 246.42 79.2018C246.857 80.2958 247.015 81.4814 246.88 82.6518C246.6 85.1018 245.16 87.2918 243.36 87.6518C243.024 87.7197 242.678 87.7119 242.345 87.6289C242.013 87.5458 241.704 87.3897 241.44 87.1718C241.09 86.8418 241.05 86.5618 241.09 86.5418Z" fill="#6F4C47"></path> <path d="M200.91 91.1123C200.82 90.7923 203.28 90.3724 205.22 88.3524C206.032 87.4634 206.725 86.4716 207.28 85.4024C207.74 84.5624 208.08 84.0423 208.21 84.1023C208.34 84.1623 208.21 84.7523 207.91 85.6823C207.497 86.9294 206.814 88.0699 205.91 89.0224C204.989 89.9881 203.819 90.6803 202.53 91.0224C201.56 91.2724 200.93 91.2223 200.91 91.1123Z" fill="#263238"></path> <path d="M182.999 58.8997C183.309 59.2997 185.549 57.8997 188.509 58.1997C191.469 58.4997 193.509 60.1997 193.859 59.8597C194.039 59.7097 193.749 59.0197 192.859 58.2197C191.672 57.1881 190.187 56.5612 188.619 56.4297C187.073 56.2764 185.519 56.6272 184.189 57.4297C183.229 58.0797 182.859 58.7197 182.999 58.8997Z" fill="#263238"></path> <path d="M182.8 65.6918C182.764 66.3193 182.973 66.9363 183.384 67.4123C183.794 67.8882 184.374 68.1857 185 68.2418C185.301 68.2811 185.608 68.2604 185.901 68.1811C186.195 68.1018 186.47 67.9653 186.71 67.7795C186.951 67.5937 187.152 67.3622 187.303 67.0983C187.454 66.8345 187.552 66.5434 187.59 66.2418C187.631 65.6157 187.425 64.9984 187.015 64.5232C186.606 64.048 186.025 63.7529 185.4 63.7018C185.098 63.6597 184.791 63.6779 184.497 63.7554C184.202 63.8329 183.926 63.9681 183.684 64.1533C183.442 64.3384 183.239 64.5697 183.088 64.8338C182.936 65.098 182.838 65.3896 182.8 65.6918Z" fill="#263238"></path> <path d="M248.18 62.5112C247.29 65.9012 245.18 73.6312 242.18 72.9412C236.18 71.5812 236.53 81.2012 233.63 80.0712C230.73 78.9412 230.05 71.2912 230.38 68.2412C231.38 58.7112 235.04 51.8712 231.01 40.9912C229.76 38.8323 227.973 37.0326 225.824 35.766C223.674 34.4995 221.234 33.8089 218.74 33.7612C216.226 33.7629 213.755 34.4069 211.56 35.632C209.366 36.8571 207.521 38.6227 206.2 40.7612C205.58 37.4312 203.84 32.4312 200.83 30.8912C199.324 30.1053 197.619 29.7811 195.929 29.9589C194.239 30.1368 192.64 30.8089 191.33 31.8912C190.08 33.0389 189.29 34.6014 189.106 36.2882C188.922 37.975 189.357 39.6711 190.33 41.0612C189.645 41.2816 188.908 41.2773 188.226 41.0488C187.544 40.8203 186.953 40.3796 186.54 39.7912C186.499 40.5739 186.619 41.3566 186.892 42.091C187.166 42.8255 187.587 43.496 188.13 44.0612C186.896 43.7862 185.803 43.0763 185.05 42.0612L186.05 46.1812C181.05 46.4312 175.96 41.6712 174.46 37.3612C172.19 30.8212 173.67 24.1412 177.21 18.2012C180.75 12.2612 187.21 7.98121 194.21 7.88121C201.21 7.78121 207 10.9312 209.81 17.2512C214.23 13.9712 223.3 12.6612 228.35 14.8212C230.875 15.9333 233.074 17.6731 234.737 19.8751C236.4 22.0771 237.471 24.668 237.85 27.4012C240.95 26.0112 244.73 26.9512 247.42 29.0312L248.07 29.5712C249.87 31.2082 251.225 33.2751 252.009 35.5784C252.792 37.8818 252.978 40.3463 252.55 42.7412C252.23 44.6612 251.61 46.6612 251.26 48.2112C250.08 52.8012 248.18 62.5112 248.18 62.5112Z" fill="#263238"></path> <path d="M185.679 39.533C185.679 39.533 185.519 39.443 185.269 39.223C184.9 38.9054 184.565 38.5501 184.269 38.163C183.126 36.7204 182.403 34.9902 182.179 33.163C181.978 31.8147 182.067 30.4389 182.441 29.128C182.816 27.8171 183.466 26.6015 184.349 25.563C185.432 24.2837 186.81 23.2874 188.364 22.6602C189.918 22.0329 191.602 21.7936 193.269 21.963C194.985 22.1779 196.63 22.7797 198.079 23.723C199.431 24.5738 200.642 25.6298 201.669 26.853C203.413 28.8891 204.699 31.2764 205.439 33.853C205.938 35.5917 206.177 37.3944 206.149 39.203C206.149 39.843 206.089 40.333 206.039 40.663C206.03 40.8327 205.999 41.0005 205.949 41.163C206.058 38.7288 205.768 36.2932 205.089 33.953C204.318 31.433 203.027 29.1028 201.299 27.113C199.264 24.6163 196.387 22.9485 193.209 22.423C191.625 22.2686 190.027 22.4969 188.55 23.0886C187.073 23.6802 185.759 24.618 184.719 25.823C183.868 26.809 183.235 27.9636 182.861 29.2112C182.487 30.4589 182.381 31.7714 182.549 33.063C182.728 34.8437 183.369 36.5467 184.409 38.003C185.159 39.053 185.709 39.493 185.679 39.533Z" fill="#455A64"></path> <path d="M183.489 44.8513C183.344 44.6798 183.22 44.4918 183.119 44.2913C182.889 43.9113 182.559 43.2913 182.119 42.6113C180.936 40.5449 179.958 38.3679 179.199 36.1113C178.689 34.5344 178.389 32.8968 178.309 31.2413C178.211 29.3264 178.514 27.4121 179.199 25.6213C179.998 23.6365 181.365 21.9319 183.129 20.7213C185.014 19.4295 187.202 18.6506 189.479 18.4613C191.745 18.2868 194.022 18.597 196.159 19.3713C198.143 20.0868 200.008 21.0983 201.689 22.3713C204.623 24.4442 206.789 27.4292 207.849 30.8613C208.509 33.1889 208.443 35.6625 207.659 37.9513C207.439 38.5615 207.157 39.1478 206.819 39.7013C206.702 39.8957 206.568 40.0797 206.419 40.2513C206.817 39.4902 207.152 38.6975 207.419 37.8813C208.104 35.6255 208.104 33.2171 207.419 30.9613C206.337 27.6347 204.199 24.7522 201.329 22.7513C197.974 20.1543 193.809 18.8262 189.569 19.0013C187.38 19.1896 185.276 19.9368 183.459 21.1713C181.774 22.3232 180.464 23.9432 179.689 25.8313C179.015 27.5559 178.705 29.4012 178.779 31.2513C178.841 32.873 179.114 34.4797 179.589 36.0313C180.314 38.2776 181.234 40.4559 182.339 42.5413L183.209 44.2713C183.32 44.4558 183.413 44.6499 183.489 44.8513Z" fill="#455A64"></path> <path d="M243.85 55.0007C243.79 54.9207 244.92 54.0907 246.31 52.3507C248.137 50.1037 249.37 47.4329 249.894 44.5843C250.419 41.7358 250.218 38.8011 249.31 36.0507C248.62 33.9307 247.86 32.7507 247.95 32.7107C248.04 32.6707 248.19 32.9607 248.52 33.5107C248.974 34.2803 249.356 35.0904 249.66 35.9307C250.689 38.7271 250.948 41.7487 250.41 44.6795C249.872 47.6103 248.556 50.3426 246.6 52.5907C246.017 53.2666 245.374 53.8891 244.68 54.4507C244.431 54.6731 244.152 54.8583 243.85 55.0007V55.0007Z" fill="#455A64"></path> <path d="M233.119 54.9016C233.119 54.8516 233.699 54.6216 234.619 53.9616C235.9 53.0384 236.9 51.7785 237.509 50.3216L237.969 49.1816L237.889 50.4116C237.779 52.0716 237.649 53.9816 237.519 56.0616L237.129 55.8416C238.786 54.6493 240.191 53.1416 241.264 51.4049C242.336 49.6683 243.055 47.7368 243.379 45.7216C243.65 43.8797 243.596 42.0047 243.219 40.1816C242.818 38.507 242.221 36.8858 241.439 35.3516C241.527 35.4388 241.604 35.5362 241.669 35.6416C241.865 35.9249 242.045 36.2187 242.209 36.5216C242.819 37.6493 243.277 38.8532 243.569 40.1016C244.272 43.0994 244.061 46.2391 242.964 49.1159C241.866 51.9927 239.931 54.4746 237.409 56.2416L236.979 56.5416V56.0216L237.449 50.3816L237.839 50.4716C237.178 51.978 236.09 53.2574 234.709 54.1516C234.336 54.3914 233.941 54.5957 233.529 54.7616C233.399 54.8244 233.261 54.8714 233.119 54.9016V54.9016Z" fill="#455A64"></path> <path d="M229.279 30.1701C228.567 28.8888 227.612 27.7579 226.469 26.8401C225.209 25.8961 223.742 25.2654 222.189 25.0001C220.28 24.69 218.321 24.9114 216.529 25.6401C214.731 26.36 213.13 27.4981 211.859 28.9601C210.826 30.1501 209.995 31.5013 209.399 32.9601C208.894 34.3441 208.496 35.765 208.209 37.2101C208.17 36.8094 208.19 36.4049 208.269 36.0101C208.409 34.9243 208.671 33.8576 209.049 32.8301C209.619 31.2941 210.448 29.8668 211.499 28.6101C212.805 27.0708 214.466 25.8729 216.339 25.1201C218.221 24.359 220.279 24.1408 222.279 24.4901C223.9 24.8015 225.418 25.5092 226.699 26.5501C227.558 27.2454 228.277 28.0971 228.819 29.0601C228.962 29.3221 229.089 29.5926 229.199 29.8701C229.244 29.9645 229.271 30.0661 229.279 30.1701Z" fill="#455A64"></path> <path d="M226.32 21.2503C225.256 20.7453 224.144 20.3499 223 20.0703C220.26 19.5545 217.426 20.0257 215 21.4003C212.594 22.856 210.655 24.9689 209.41 27.4903C208.41 29.4103 208.14 30.7403 208.05 30.7103C208.046 30.3907 208.097 30.0727 208.2 29.7703C208.421 28.9293 208.715 28.1095 209.08 27.3203C210.273 24.6885 212.24 22.4836 214.72 21.0003C217.263 19.5421 220.264 19.0992 223.12 19.7603C223.975 19.9729 224.793 20.3099 225.55 20.7603C225.829 20.8862 226.088 21.0512 226.32 21.2503V21.2503Z" fill="#455A64"></path> <path d="M154.26 298.232L266 299.752C266 299.752 297.25 286.672 305.84 286.322C314.43 285.972 331.47 287.062 339.35 299.752C347.5 312.872 348.64 336.012 323.53 352.822C299.07 369.202 187.24 384.332 171.91 382.942L143.67 345.002C143.67 345.002 143.38 313.912 143.67 312.432C143.96 310.952 148.67 297.632 148.67 297.632L154.26 298.232Z" fill="#263238"></path> <path d="M221.16 350.711L279.07 372.221L252.68 444.391C245.94 441.451 245.75 399.051 245.75 399.051L208.08 386.791L221.16 350.711Z" fill="#C2E1DC"></path> <g opacity="0.6"> <path d="M250.78 375.59C251.245 374.972 251.922 374.549 252.68 374.399C253.438 374.25 254.225 374.385 254.89 374.78C255.525 375.218 255.968 375.885 256.124 376.641C256.28 377.397 256.139 378.185 255.73 378.84C254.86 380.12 252.56 380.66 251.37 379.68C250.18 378.7 249.82 376.38 250.97 375.35" fill="white"></path> </g> <path d="M279.07 372.22L273.22 370L250.06 440.2C250.06 440.2 250.28 443.93 252.68 444.39L279.07 372.22Z" fill="#263238"></path> <path d="M245 400.082C245.36 400.202 246.16 398.502 247.93 397.182C249.7 395.862 251.52 395.482 251.5 395.102C251.48 394.722 249.25 394.512 247.14 396.102C245.03 397.692 244.6 400.002 245 400.082Z" fill="#263238"></path> <path d="M245.319 408.801C245.629 409.001 246.779 407.701 248.709 407.051C250.639 406.401 252.339 406.621 252.459 406.271C252.579 405.921 250.659 404.961 248.279 405.811C245.899 406.661 244.999 408.671 245.319 408.801Z" fill="#263238"></path> <path d="M252.8 416.41C253 416.12 251.41 414.98 249.15 415.18C246.89 415.38 245.52 416.75 245.76 417.01C246 417.27 247.4 416.62 249.26 416.48C251.12 416.34 252.64 416.75 252.8 416.41Z" fill="#263238"></path> <path d="M236.679 396.343C237.049 396.343 237.159 394.513 238.019 392.573C238.879 390.633 240.079 389.303 239.849 389.013C239.619 388.723 237.849 389.753 236.849 392.013C235.849 394.273 236.339 396.413 236.679 396.343Z" fill="#263238"></path> <path d="M228.74 391.492C228.89 391.542 229.61 390.232 230.05 387.872C230.289 386.482 230.363 385.069 230.27 383.662C230.207 382.829 230.093 382.001 229.93 381.182C229.846 380.695 229.691 380.223 229.47 379.782C229.307 379.458 229.04 379.198 228.711 379.044C228.383 378.89 228.013 378.851 227.66 378.932C227.349 379.018 227.063 379.176 226.825 379.393C226.587 379.61 226.404 379.88 226.29 380.182C226.122 380.639 226.017 381.117 225.98 381.602C225.884 382.442 225.867 383.289 225.93 384.132C226.039 385.557 226.377 386.954 226.93 388.272C227.87 390.512 228.93 391.562 229.09 391.472C229.25 391.382 228.45 390.132 227.8 387.962C227.418 386.699 227.203 385.391 227.16 384.072C227.136 383.3 227.176 382.527 227.28 381.762C227.36 380.922 227.59 380.272 228 380.202C228.16 380.202 228.21 380.202 228.38 380.432C228.53 380.75 228.641 381.086 228.71 381.432C228.884 382.19 229.014 382.958 229.1 383.732C229.243 385.06 229.263 386.4 229.16 387.732C229 390.002 228.55 391.422 228.74 391.492Z" fill="#263238"></path> <path d="M229.42 391.212C229.52 391.112 228.51 389.952 226.27 388.982C224.96 388.414 223.563 388.076 222.14 387.982C221.291 387.938 220.44 387.979 219.6 388.102C219.052 388.122 218.52 388.284 218.053 388.571C217.587 388.858 217.203 389.262 216.94 389.742C216.828 390.064 216.81 390.411 216.89 390.743C216.97 391.074 217.143 391.376 217.39 391.612C217.743 391.954 218.144 392.243 218.58 392.472C219.342 392.892 220.165 393.192 221.02 393.362C222.442 393.663 223.917 393.601 225.31 393.182C227.7 392.462 228.66 391.182 228.55 391.072C228.44 390.962 227.29 391.862 225.1 392.292C223.834 392.532 222.531 392.498 221.28 392.192C220.559 392.007 219.866 391.728 219.22 391.362C218.49 390.962 217.98 390.452 218.16 390.192C218.34 389.932 219.09 389.432 219.81 389.362C220.563 389.234 221.326 389.174 222.09 389.182C223.402 389.21 224.704 389.418 225.96 389.802C228.11 390.532 229.29 391.392 229.42 391.212Z" fill="#263238"></path> <path d="M173.399 341.793L117.399 367.793L149.399 437.673C155.879 434.213 152.739 391.923 152.739 391.923L189.329 376.743L173.399 341.793Z" fill="#C2E1DC"></path> <g opacity="0.6"> <path d="M145.83 368.921C145.318 368.342 144.611 367.971 143.844 367.881C143.076 367.791 142.302 367.986 141.67 368.431C141.07 368.919 140.682 369.621 140.587 370.389C140.492 371.156 140.697 371.931 141.16 372.551C142.16 373.751 144.45 374.111 145.56 373.041C146.67 371.971 146.85 369.631 145.62 368.701" fill="white"></path> </g> <path d="M117.369 367.78L123.019 365.16L151.629 433.28C151.629 433.28 151.699 437.01 149.349 437.66L117.369 367.78Z" fill="#263238"></path> <path d="M153.569 392.883C153.219 393.033 152.279 391.393 150.419 390.213C148.559 389.033 146.709 388.803 146.699 388.423C146.689 388.043 148.899 387.653 151.129 389.123C153.359 390.593 153.909 392.813 153.569 392.883Z" fill="#263238"></path> <path d="M153.89 401.6C153.59 401.83 152.34 400.6 150.36 400.12C148.38 399.64 146.71 399.98 146.57 399.64C146.43 399.3 148.26 398.19 150.7 398.85C153.14 399.51 154.21 401.44 153.89 401.6Z" fill="#263238"></path> <path d="M146.999 409.782C146.789 409.502 148.269 408.242 150.539 408.262C152.809 408.282 154.289 409.542 154.069 409.822C153.849 410.102 152.399 409.562 150.539 409.572C148.679 409.582 147.209 410.102 146.999 409.782Z" fill="#263238"></path> <path d="M161.519 388.503C161.139 388.503 160.899 386.713 159.879 384.853C158.859 382.993 157.569 381.753 157.789 381.443C158.009 381.133 159.869 382.023 161.039 384.243C162.209 386.463 161.859 388.543 161.519 388.503Z" fill="#263238"></path> <path d="M169.049 383.001C168.909 383.071 168.049 381.811 167.469 379.491C167.111 378.126 166.923 376.722 166.909 375.311C166.907 374.478 166.957 373.647 167.059 372.821C167.095 372.326 167.21 371.839 167.399 371.381C167.535 371.043 167.78 370.76 168.096 370.579C168.411 370.397 168.779 370.328 169.139 370.381C169.457 370.436 169.757 370.568 170.013 370.765C170.269 370.962 170.474 371.218 170.609 371.511C170.813 371.985 170.944 372.487 170.999 373.001C171.159 373.831 171.243 374.675 171.249 375.521C171.254 376.942 171.038 378.356 170.609 379.711C169.849 382.021 168.829 383.161 168.709 383.071C168.589 382.981 169.229 381.691 169.709 379.471C169.989 378.184 170.1 376.866 170.039 375.551C170.005 374.777 169.905 374.007 169.739 373.251C169.599 372.431 169.319 371.791 168.899 371.751C168.739 371.751 168.689 371.751 168.539 372.011C168.418 372.333 168.337 372.669 168.299 373.011C168.182 373.782 168.112 374.56 168.089 375.341C168.044 376.679 168.128 378.018 168.339 379.341C168.729 381.601 169.239 383.001 169.049 383.001Z" fill="#263238"></path> <path d="M168.359 382.821C168.249 382.721 169.159 381.481 171.309 380.351C173.34 379.303 175.62 378.836 177.899 379.001C178.447 378.977 178.992 379.095 179.481 379.344C179.97 379.593 180.386 379.964 180.689 380.421C180.824 380.736 180.866 381.083 180.811 381.421C180.756 381.759 180.607 382.075 180.379 382.331C180.052 382.699 179.675 383.019 179.259 383.281C178.532 383.758 177.736 384.123 176.899 384.361C175.505 384.768 174.031 384.823 172.609 384.521C170.169 383.981 169.109 382.751 169.209 382.661C169.309 382.571 170.529 383.361 172.749 383.661C174.03 383.804 175.327 383.668 176.549 383.261C177.26 383.025 177.934 382.688 178.549 382.261C179.239 381.811 179.719 381.261 179.549 381.021C179.335 380.787 179.071 380.603 178.777 380.482C178.484 380.361 178.167 380.306 177.849 380.321C177.085 380.246 176.314 380.246 175.549 380.321C174.245 380.445 172.966 380.755 171.749 381.241C169.599 382.001 168.489 383.001 168.359 382.821Z" fill="#263238"></path> <path d="M148.7 297.641C148.7 297.641 100.44 279.641 82.6996 281.941C72.7696 283.251 57.2396 290.831 56.0496 303.561C54.8596 316.291 57.9796 333.321 75.1496 341.611C92.3196 349.901 160.86 380.661 177.15 385.391C193.44 390.121 234 401.221 234 401.221L249.42 357.221C249.42 357.221 165.27 328.081 160.83 324.821C156.39 321.561 145.14 317.131 145.14 317.131L148.7 297.641Z" fill="#263238"></path> <path d="M316.469 303.61L316.13 303.53L315.13 303.23C314.28 302.98 313.02 302.61 311.38 302.23C306.754 301.055 301.958 300.7 297.209 301.18C293.935 301.46 290.698 302.077 287.549 303.02C285.802 303.549 284.1 304.218 282.459 305.02L277.209 307.59C269.989 311.04 261.919 314.59 253.339 317.96C236.139 324.85 219.629 328.12 207.859 330.8C201.959 332.1 197.179 333.18 193.859 333.96L190.07 334.86L189.07 335.08L188.729 335.14C188.829 335.085 188.937 335.048 189.049 335.03L190.049 334.76C190.909 334.53 192.17 334.17 193.82 333.76C197.09 332.92 201.819 331.76 207.749 330.44C219.509 327.67 235.969 324.35 253.109 317.44C261.689 314.05 269.749 310.54 276.969 307.11L282.23 304.57C283.896 303.765 285.625 303.096 287.399 302.57C290.576 301.628 293.845 301.028 297.149 300.78C301.954 300.32 306.802 300.733 311.459 302C313.099 302.42 314.35 302.82 315.2 303.11L316.149 303.46L316.469 303.61Z" fill="#455A64"></path> <path d="M313.93 297.251C313.93 297.341 312.46 297.071 310.1 296.821C303.939 296.142 297.709 296.462 291.65 297.771C289.32 298.261 287.9 298.671 287.88 298.591C288.195 298.419 288.531 298.288 288.88 298.201C289.51 297.981 290.44 297.701 291.6 297.411C294.631 296.651 297.729 296.189 300.85 296.031C303.966 295.874 307.09 296.015 310.18 296.451C311.37 296.631 312.32 296.811 312.97 296.961C313.299 297.023 313.621 297.12 313.93 297.251V297.251Z" fill="#455A64"></path> <path d="M128.399 310.402C128.349 310.472 127.009 309.402 124.699 308.012C118.665 304.259 111.884 301.87 104.829 301.012C102.129 300.672 100.439 300.642 100.439 300.552C100.832 300.481 101.231 300.458 101.629 300.482C102.399 300.482 103.509 300.482 104.869 300.642C112.015 301.321 118.884 303.749 124.869 307.712C125.776 308.301 126.651 308.939 127.489 309.622C127.826 309.84 128.132 310.103 128.399 310.402V310.402Z" fill="#455A64"></path> <path d="M152.62 376L153 376.14L154.09 376.6C155.09 377 156.47 377.66 158.36 378.39C162.12 379.88 167.67 381.92 174.8 384.27C189.05 388.92 209.54 394.86 234.06 401.03L233.79 401.18L248.71 359.77L248.85 360.1L230.37 352.51L128.14 310.4C123.98 306 120.14 302.12 116.56 298.98C113.517 296.296 110.271 293.852 106.85 291.67C104.698 290.316 102.474 289.077 100.19 287.96L98.3998 287.12L97.7998 286.82L98.4198 287.08L100.23 287.87C102.539 288.951 104.783 290.166 106.95 291.51C110.401 293.67 113.675 296.101 116.74 298.78C120.36 301.9 124.21 305.78 128.39 310.16H128.33L230.57 352L249.05 359.59L249.27 359.68L249.19 359.92L234.19 401.31L234.12 401.51L233.91 401.46C209.39 395.24 188.91 389.24 174.67 384.46C167.55 382.08 162.01 379.99 158.26 378.46C156.38 377.72 154.98 377.03 154.02 376.61L152.94 376.12L152.62 376Z" fill="#455A64"></path> <path d="M271.899 143.832C271.899 143.832 285.799 151.832 288.619 161.242C290.329 166.952 303.289 240.012 305.339 254.412C307.389 268.812 303.059 279.492 296.919 284.272C290.779 289.052 272.149 295.412 272.149 295.412L245.999 303.902L238.489 284.782L263.389 249.002L260.999 224.832L271.899 143.832Z" fill="#C2E1DC"></path> <path d="M244.59 131.213L234.15 125.213C234.15 125.213 224.64 136.333 211.67 134.973C198.7 133.613 191 123.723 191 123.723L152.32 131.593C149.73 132.113 145 133.753 140.47 140.223C135.42 147.433 111.47 179.423 111.47 179.423H94.7496C92.4852 179.422 90.2638 180.041 88.3252 181.211C86.3865 182.381 84.8044 184.059 83.7496 186.063C80.8896 191.513 77.4596 198.793 77.7496 201.813C78.3196 206.923 77.3296 220.933 84.1796 225.303C86.3496 226.693 94.1096 230.853 100.18 230.573C109.07 230.153 119.4 225.523 125.35 221.363C130.35 217.833 142.1 205.653 146.61 200.903V201.003L149.51 302.453L250.91 299.573L271.91 143.853C271.91 143.853 245.61 131.213 244.59 131.213Z" fill="#C2E1DC"></path> <path d="M146.239 158.402C146.379 158.402 146.649 170.972 146.829 186.482C147.009 201.992 147.049 214.572 146.899 214.572C146.749 214.572 146.489 202.002 146.309 186.492C146.129 170.982 146.099 158.402 146.239 158.402Z" fill="#263238"></path> <path d="M284.18 240.411C284.18 240.411 283.32 240.551 281.79 240.841C279.629 241.272 277.522 241.942 275.51 242.841C272.532 244.185 269.725 245.88 267.15 247.891C263.994 250.361 261.047 253.086 258.34 256.041C255.44 259.171 252.8 262.261 250.34 265.041C248.156 267.489 245.849 269.825 243.43 272.041C241.793 273.54 240.059 274.93 238.24 276.201C237.6 276.651 237.07 276.951 236.72 277.201C236.55 277.323 236.365 277.424 236.17 277.501C236.32 277.355 236.484 277.224 236.66 277.111C236.99 276.861 237.5 276.531 238.12 276.051C239.889 274.732 241.578 273.309 243.18 271.791C245.23 269.891 247.52 267.471 249.98 264.701C252.44 261.931 255.08 258.831 257.98 255.701C260.71 252.731 263.687 249.998 266.88 247.531C269.495 245.518 272.35 243.839 275.38 242.531C277.427 241.654 279.572 241.029 281.77 240.671C282.55 240.521 283.16 240.521 283.57 240.471C283.77 240.426 283.975 240.406 284.18 240.411V240.411Z" fill="#263238"></path> <path d="M286.48 233.541C286.48 233.631 284.94 233.851 282.48 234.541C276.158 236.291 270.421 239.707 265.87 244.431C264.13 246.241 263.2 247.501 263.13 247.431C263.285 247.099 263.479 246.787 263.71 246.501C264.288 245.684 264.919 244.906 265.6 244.171C270.066 239.234 275.912 235.75 282.38 234.171C283.352 233.932 284.337 233.749 285.33 233.621C285.708 233.541 286.095 233.514 286.48 233.541V233.541Z" fill="#263238"></path> <g opacity="0.3"> <path d="M97.75 215.73C103.12 217.19 109.56 209.47 114.44 204.64C116.97 202.12 119.61 199.44 120.55 195.99C121.21 193.091 120.912 190.056 119.7 187.34C118.801 184.892 117.602 182.564 116.13 180.41C116.58 184.58 117.61 190.96 116.21 196.2C115.04 200.57 112.27 204.04 109.33 207.34C106.23 210.83 102.55 214.49 97.75 215.73" fill="black"></path> </g> <path d="M120.7 211.311C120.6 211.311 121.22 209.541 121.7 206.631C121.991 204.929 122.155 203.207 122.19 201.481C122.226 199.369 122.085 197.259 121.77 195.171C121.425 193.085 120.91 191.032 120.23 189.031C119.66 187.399 118.972 185.812 118.17 184.281C116.8 181.661 115.67 180.201 115.75 180.141C116.065 180.44 116.344 180.776 116.58 181.141C116.896 181.535 117.186 181.95 117.45 182.381C117.77 182.881 118.15 183.441 118.5 184.101C119.353 185.626 120.082 187.218 120.68 188.861C121.399 190.882 121.935 192.963 122.28 195.081C122.606 197.201 122.736 199.347 122.67 201.491C122.616 203.242 122.412 204.985 122.06 206.701C121.94 207.441 121.75 208.081 121.6 208.701C121.479 209.191 121.332 209.675 121.16 210.151C121.044 210.551 120.89 210.939 120.7 211.311V211.311Z" fill="#263238"></path> <path d="M195.24 127.641C195.31 127.771 194.12 128.461 192.88 129.581C191.64 130.701 190.8 131.791 190.68 131.701C191.115 130.744 191.746 129.888 192.531 129.189C193.316 128.49 194.239 127.963 195.24 127.641V127.641Z" fill="#263238"></path> <path d="M205.789 133.77C205.899 133.88 204.879 134.97 204.059 136.59C203.239 138.21 202.929 139.67 202.779 139.59C202.708 138.435 202.994 137.286 203.599 136.3C204.059 135.255 204.822 134.374 205.789 133.77V133.77Z" fill="#263238"></path> <path d="M223.859 140.133C223.376 139.173 222.987 138.168 222.699 137.133C222.258 136.148 221.923 135.118 221.699 134.062C222.406 134.91 222.925 135.899 223.219 136.963C223.661 137.96 223.88 139.042 223.859 140.133V140.133Z" fill="#263238"></path> <path d="M235.49 134.629C235.33 134.629 234.94 132.899 233.79 131.029C232.64 129.159 231.28 127.979 231.39 127.859C232.606 128.523 233.598 129.532 234.24 130.759C235.031 131.897 235.466 133.244 235.49 134.629V134.629Z" fill="#263238"></path> <path d="M268.87 167.492C269.02 167.492 267.3 181.372 265.04 198.442C262.78 215.512 260.83 229.342 260.69 229.322C260.55 229.302 262.26 215.452 264.52 198.372C266.78 181.292 268.73 167.472 268.87 167.492Z" fill="#263238"></path> <path d="M116.92 189.93C116.959 190.406 116.959 190.884 116.92 191.36C116.893 191.921 116.822 192.479 116.71 193.03C116.65 193.36 116.6 193.7 116.53 194.03C116.46 194.36 116.35 194.77 116.24 195.17C115.747 197.045 115.077 198.87 114.24 200.62C113.189 202.749 111.94 204.774 110.51 206.67C109.038 208.55 107.361 210.261 105.51 211.77C103.986 212.99 102.304 214 100.51 214.77C100.12 214.92 99.7599 215.09 99.4099 215.22L98.4099 215.5L97.5298 215.74C97.2598 215.8 96.9999 215.81 96.7699 215.85C96.2969 215.925 95.8187 215.962 95.3398 215.96C97.054 215.62 98.7293 215.108 100.34 214.43C102.066 213.636 103.685 212.628 105.16 211.43C106.943 209.936 108.565 208.26 110 206.43C111.41 204.565 112.648 202.577 113.7 200.49C114.545 198.773 115.241 196.986 115.78 195.15C116.25 193.431 116.63 191.688 116.92 189.93V189.93Z" fill="#263238"></path> <g opacity="0.3"> <path d="M265.61 305.9C269.91 303.82 270.89 298.25 271.33 293.49C272.61 279.563 273.893 265.627 275.18 251.68C275.79 245.13 276.08 237.68 271.46 232.96C267.24 228.68 260.53 228.43 254.52 228.45C217.42 228.55 184.65 229.64 147.52 229.74L149.41 294.65L265.61 305.9Z" fill="black"></path> </g> <path d="M131.55 239.801L135.5 315.081C135.582 316.487 136.2 317.808 137.227 318.772C138.254 319.735 139.611 320.269 141.02 320.261L260.94 320.471C262.351 320.476 263.71 319.939 264.737 318.972C265.764 318.004 266.38 316.68 266.46 315.271L271.03 241.271C271.19 238.191 269.03 234.101 265.89 234.041H137.18C136.424 234.021 135.672 234.157 134.971 234.441C134.27 234.725 133.635 235.151 133.107 235.692C132.578 236.232 132.167 236.877 131.899 237.584C131.631 238.291 131.512 239.046 131.55 239.801Z" fill="#E0E0E0"></path> <path d="M131.55 239.8C131.55 239.8 131.55 239.7 131.55 239.52C131.524 239.241 131.524 238.96 131.55 238.68C131.713 237.582 132.209 236.559 132.97 235.75C133.528 235.153 134.211 234.685 134.97 234.38C135.898 234.047 136.886 233.91 137.87 233.98H145.16L191.62 233.9L260.53 233.83H265.43C266.298 233.784 267.16 234.004 267.9 234.46C268.63 234.925 269.253 235.538 269.73 236.26C270.711 237.691 271.237 239.385 271.24 241.12C271.14 242.79 271.04 244.48 270.94 246.18C270.52 252.954 270.093 259.864 269.66 266.91C268.8 281 267.9 295.58 266.97 310.52L266.8 313.32C266.72 314.25 266.74 315.15 266.57 316.13C266.377 317.088 265.944 317.981 265.31 318.724C264.677 319.468 263.865 320.038 262.95 320.38C262.05 320.7 261.092 320.826 260.14 320.75H251.89H230.36L189.66 320.66L152.83 320.57H144.33H142.3C141.61 320.57 140.93 320.57 140.21 320.5C138.807 320.302 137.527 319.589 136.62 318.5C135.735 317.438 135.26 316.093 135.28 314.71C135.21 313.4 135.15 312.11 135.08 310.83C134.95 308.26 134.82 305.76 134.69 303.31C133.69 283.72 132.9 267.87 132.34 256.91C132.08 251.44 131.87 247.19 131.73 244.29C131.67 242.85 131.62 241.76 131.58 241.01C131.54 240.26 131.58 239.89 131.58 239.89C131.58 239.89 131.58 240.27 131.67 241.01C131.76 241.75 131.78 242.85 131.86 244.28C132.03 247.18 132.27 251.43 132.58 256.9C133.17 267.9 134.03 283.71 135.09 303.29C135.22 305.74 135.36 308.24 135.5 310.81C135.56 312.09 135.63 313.38 135.7 314.69C135.68 315.987 136.128 317.247 136.96 318.24C137.805 319.248 138.996 319.904 140.3 320.08C140.965 320.14 141.633 320.16 142.3 320.14H152.87H189.7L230.4 320.2H251.93H260.18C261.071 320.272 261.967 320.156 262.81 319.86C263.641 319.55 264.38 319.032 264.955 318.357C265.531 317.681 265.925 316.87 266.1 316C266.25 315.15 266.25 314.17 266.32 313.26L266.49 310.46C267.42 295.52 268.32 280.94 269.2 266.86C269.633 259.807 270.06 252.894 270.48 246.12C270.59 244.43 270.69 242.75 270.79 241.07C270.783 239.443 270.289 237.854 269.37 236.51C268.975 235.826 268.404 235.259 267.717 234.869C267.029 234.479 266.25 234.279 265.46 234.29H260.57H191.66L145.2 234.22H137.91C136.945 234.145 135.974 234.271 135.06 234.59C134.175 234.932 133.394 235.497 132.795 236.232C132.195 236.967 131.797 237.845 131.64 238.78C131.593 239.119 131.563 239.459 131.55 239.8Z" fill="#263238"></path> <path d="M202.179 283.581C206.078 283.581 209.239 280.42 209.239 276.521C209.239 272.622 206.078 269.461 202.179 269.461C198.28 269.461 195.119 272.622 195.119 276.521C195.119 280.42 198.28 283.581 202.179 283.581Z" fill="white"></path> <path d="M209.24 276.521C209.19 276.521 209.24 275.891 208.92 274.821C208.506 273.311 207.597 271.983 206.34 271.051C205.487 270.406 204.493 269.974 203.44 269.791C202.239 269.581 201.005 269.691 199.86 270.111C198.592 270.569 197.491 271.398 196.7 272.491C195.894 273.593 195.437 274.913 195.388 276.278C195.339 277.644 195.701 278.992 196.427 280.15C197.153 281.307 198.209 282.22 199.459 282.771C200.709 283.322 202.096 283.486 203.44 283.241C204.493 283.057 205.487 282.625 206.34 281.981C207.596 281.05 208.504 279.727 208.92 278.221C209.21 277.151 209.19 276.511 209.24 276.521C209.266 276.669 209.266 276.822 209.24 276.971C209.246 277.408 209.195 277.845 209.09 278.271C208.726 279.858 207.825 281.271 206.54 282.271C205.579 283.019 204.444 283.513 203.241 283.705C202.039 283.898 200.806 283.782 199.66 283.371C198.589 282.988 197.623 282.36 196.839 281.537C196.055 280.714 195.474 279.719 195.144 278.631C194.813 277.544 194.742 276.394 194.936 275.273C195.13 274.153 195.583 273.094 196.26 272.181C197.112 271.013 198.297 270.131 199.66 269.651C200.887 269.211 202.21 269.111 203.49 269.361C204.586 269.581 205.614 270.057 206.49 270.751C207.78 271.746 208.681 273.161 209.04 274.751C209.146 275.172 209.196 275.606 209.19 276.041C209.235 276.196 209.252 276.359 209.24 276.521V276.521Z" fill="#263238"></path> <path d="M135.59 248.133C135.73 248.133 136.33 260.783 136.91 276.393C137.49 292.003 137.85 304.663 137.71 304.663C137.57 304.663 137 292.003 136.39 276.403C135.78 260.803 135.45 248.143 135.59 248.133Z" fill="#263238"></path> <path d="M99.5498 149.913C98.8398 149.313 101.92 137.493 101.92 137.493C101.92 137.493 93.7798 124.223 93.5698 119.943C93.3598 115.663 96.7798 106.883 96.7798 106.883L120.11 100.883C120.11 100.883 127.61 114.803 129.11 119.723C130.61 124.643 126.54 141.343 126.54 141.343L122.54 149.913C122.54 149.913 110.66 159.333 99.5498 149.913Z" fill="#936760"></path> <path d="M93.6098 122.503C92.6965 120.819 91.8753 119.086 91.1498 117.313C89.6798 113.813 87.8598 110.373 91.1498 108.413C91.6632 108.075 92.243 107.851 92.8502 107.756C93.4574 107.661 94.0779 107.698 94.6698 107.863C94.6698 107.863 94.1698 104.863 95.9298 103.803C96.4418 103.483 97.0223 103.289 97.6238 103.237C98.2252 103.185 98.8304 103.276 99.3898 103.503C99.3898 103.503 98.8298 99.3431 101.39 97.5831C102.342 96.954 103.452 96.6029 104.593 96.5693C105.734 96.5358 106.862 96.821 107.85 97.3931C107.85 97.3931 105.85 79.1831 105.67 78.2231C105.03 74.6831 106.34 71.5431 109.86 72.4231C111.15 72.7431 111.86 74.1031 113.38 80.0331C114.9 85.9631 117.33 96.0831 117.33 96.0831C117.33 96.0831 121.43 103.203 123.33 107.083C125.23 110.963 129.1 119.743 129.42 122.083C130.24 128.083 126.71 136.083 126.71 136.083L101.91 137.523L93.6098 122.503Z" fill="#936760"></path> <path d="M95.1597 108.641C95.8668 109.484 96.5086 110.38 97.0797 111.321L99.0797 114.321C99.4849 114.911 99.8427 115.533 100.15 116.181C100.499 116.919 100.6 117.75 100.44 118.551C100.364 118.969 100.179 119.36 99.9035 119.683C99.6276 120.006 99.2709 120.25 98.8697 120.391C98.1207 120.578 97.3288 120.478 96.6497 120.111C96.0658 119.831 95.51 119.496 94.9897 119.111C94.5097 118.761 94.0597 118.421 93.6597 118.111C92.8497 117.481 92.2297 116.941 91.8097 116.551C91.3897 116.161 91.1697 115.941 91.1897 115.911C91.2097 115.881 92.1897 116.641 93.8797 117.811C94.8242 118.522 95.8279 119.151 96.8797 119.691C97.4541 119.993 98.1192 120.075 98.7497 119.921C99.0646 119.806 99.343 119.61 99.5558 119.351C99.7687 119.093 99.9082 118.782 99.9597 118.451C100.087 117.774 99.9996 117.075 99.7097 116.451C99.4223 115.826 99.088 115.225 98.7097 114.651L96.8397 111.651C96.1965 110.696 95.6345 109.689 95.1597 108.641V108.641Z" fill="#6F4C47"></path> <path d="M115.5 110.81C115.287 109.508 115.376 108.173 115.76 106.91C115.985 105.608 116.516 104.377 117.31 103.32C117.45 103.39 116.76 104.98 116.31 107.03C115.86 109.08 115.66 110.81 115.5 110.81Z" fill="#6F4C47"></path> <path d="M125.34 116.131C123.05 113.915 120.167 112.411 117.04 111.801C113.926 111.201 110.74 111.08 107.59 111.441C105.07 111.671 102.18 112.321 101.04 114.581C99.8995 116.841 101.28 119.901 103.51 121.231C105.74 122.561 108.51 122.621 111.12 122.391C113.73 122.161 116.33 121.671 118.91 122.071" fill="#936760"></path> <path d="M118.909 122.073C118.909 122.073 118.209 122.003 116.909 122.073C115.132 122.15 113.36 122.317 111.599 122.573C110.363 122.731 109.115 122.784 107.869 122.733C106.417 122.683 104.992 122.325 103.689 121.683C102.235 120.917 101.126 119.626 100.589 118.073C100.304 117.243 100.242 116.353 100.409 115.493C100.623 114.605 101.1 113.803 101.779 113.193C103.157 112.127 104.814 111.485 106.549 111.343C108.113 111.159 109.685 111.065 111.259 111.063C113.937 111.014 116.605 111.416 119.149 112.253C120.861 112.828 122.461 113.694 123.879 114.813C124.266 115.119 124.631 115.453 124.969 115.813C125.096 115.927 125.207 116.059 125.299 116.203C125.299 116.203 124.779 115.733 123.759 114.993C122.318 113.956 120.722 113.156 119.029 112.623C116.517 111.849 113.896 111.491 111.269 111.563C109.715 111.58 108.162 111.683 106.619 111.873C104.987 112.003 103.427 112.604 102.129 113.603C101.532 114.131 101.11 114.828 100.919 115.603C100.763 116.372 100.815 117.17 101.069 117.913C101.561 119.35 102.579 120.547 103.919 121.263C105.166 121.878 106.53 122.218 107.919 122.263C109.14 122.33 110.364 122.3 111.579 122.173C113.356 121.941 115.147 121.824 116.939 121.823C117.425 121.844 117.909 121.891 118.389 121.963C118.567 121.973 118.742 122.01 118.909 122.073V122.073Z" fill="#6F4C47"></path> <path d="M95.3398 108.932C97.9498 112.932 100.25 117.252 102.45 121.452C102.975 122.738 103.839 123.858 104.95 124.693C105.89 125.273 108.22 124.223 109.27 123.863L102.1 107.562" fill="#936760"></path> <path d="M102.1 107.562C102.351 107.945 102.565 108.35 102.74 108.773L104.32 112.193C105.65 115.093 107.47 119.192 109.5 123.762L109.62 124.012L109.35 124.113C108.58 124.383 107.75 124.733 106.85 124.963C106.489 125.052 106.121 125.106 105.75 125.122C105.555 125.132 105.359 125.112 105.17 125.062C104.972 125.014 104.788 124.922 104.63 124.792C104.053 124.376 103.56 123.854 103.18 123.253C102.45 122.093 101.93 120.933 101.34 119.863C100.22 117.693 99.1898 115.753 98.2898 114.133C97.3898 112.513 96.6498 111.223 96.1198 110.333C95.8278 109.884 95.5671 109.417 95.3398 108.932C95.6994 109.333 96.0177 109.768 96.2898 110.232C96.8698 111.082 97.6798 112.352 98.6098 113.952C99.5398 115.552 100.61 117.473 101.77 119.633C102.36 120.703 102.91 121.883 103.61 122.973C103.958 123.515 104.402 123.99 104.92 124.372C105.196 124.516 105.5 124.597 105.811 124.611C106.122 124.625 106.432 124.571 106.72 124.452C107.57 124.242 108.38 123.902 109.18 123.622L109 124.003C107 119.393 105.22 115.303 104 112.363L102.56 108.883C102.368 108.457 102.214 108.015 102.1 107.562Z" fill="#6F4C47"></path> <path d="M100.17 102.711C102.47 108.491 104.773 114.267 107.08 120.041C107.5 121.297 108.129 122.474 108.94 123.521C109.35 124.041 109.882 124.451 110.49 124.715C111.097 124.978 111.76 125.087 112.42 125.031C114.22 124.771 115.42 122.861 115.49 121.031C115.435 119.205 114.992 117.412 114.19 115.771C112.123 110.5 110.468 105.077 109.24 99.5508" fill="#936760"></path> <path d="M109.24 99.5625C109.31 99.7347 109.367 99.9118 109.41 100.092C109.52 100.492 109.65 101.002 109.82 101.622C110.18 102.952 110.7 104.873 111.43 107.223C112.16 109.573 113.1 112.343 114.29 115.363C115.027 116.945 115.516 118.631 115.74 120.363C115.806 121.313 115.624 122.264 115.21 123.122C114.787 124.02 114.051 124.731 113.14 125.122C112.666 125.296 112.161 125.364 111.659 125.322C111.156 125.281 110.669 125.131 110.23 124.883C109.409 124.425 108.72 123.764 108.23 122.963C107.403 121.453 106.704 119.878 106.14 118.253C104.96 115.253 103.9 112.512 102.99 110.202C102.08 107.892 101.43 106.103 100.91 104.753L100.36 103.262C100.289 103.089 100.238 102.908 100.21 102.723C100.311 102.88 100.395 103.047 100.46 103.223L101.1 104.673C101.65 106.013 102.41 107.842 103.33 110.062C104.25 112.283 105.33 115.062 106.59 118.062C107.153 119.65 107.845 121.188 108.66 122.663C109.113 123.395 109.751 123.995 110.51 124.402C110.884 124.613 111.299 124.741 111.727 124.777C112.155 124.813 112.586 124.757 112.99 124.613C113.788 124.265 114.429 123.634 114.79 122.842C115.166 122.066 115.332 121.203 115.27 120.342C115.048 118.679 114.58 117.058 113.88 115.533C112.71 112.533 111.8 109.683 111.12 107.323C110.44 104.963 109.96 103.003 109.66 101.663C109.52 100.983 109.41 100.463 109.35 100.103C109.285 99.9294 109.248 99.7471 109.24 99.5625V99.5625Z" fill="#6F4C47"></path> <path d="M100.719 143.343C100.719 143.343 84.8995 190.003 84.2695 192.283C83.6395 194.563 87.3995 211.233 94.2695 215.183C101.139 219.133 114.469 202.693 116.129 196.653C117.789 190.613 116.129 180.413 116.129 180.413L126.799 140.223" fill="#936760"></path> <path d="M116.13 136.091C115.625 136.155 115.112 136.09 114.64 135.901C113.472 135.537 112.4 134.919 111.5 134.091C110.589 133.261 109.877 132.236 109.42 131.091C109.187 130.637 109.076 130.131 109.1 129.621C109.759 131.135 110.691 132.515 111.85 133.691C113.114 134.751 114.566 135.565 116.13 136.091V136.091Z" fill="#6F4C47"></path> <path d="M400.32 362.221C400.32 362.371 312.21 362.491 203.54 362.491C94.8702 362.491 6.74023 362.371 6.74023 362.221C6.74023 362.071 94.8402 361.961 203.54 361.961C312.24 361.961 400.32 362.081 400.32 362.221Z" fill="#263238"></path> </svg> 