<?xml version="1.0" encoding="UTF-8"?>
<!DOCTYPE svg PUBLIC "-//W3C//DTD SVG 1.1//EN" "http://www.w3.org/Graphics/SVG/1.1/DTD/svg11.dtd">
<svg xmlns="http://www.w3.org/2000/svg" version="1.1" width="838px" height="1245px" style="shape-rendering:geometricPrecision; text-rendering:geometricPrecision; image-rendering:optimizeQuality; fill-rule:evenodd; clip-rule:evenodd" xmlns:xlink="http://www.w3.org/1999/xlink">
<g><path style="opacity:0.976" fill="#1a2e35" d="M 392.5,-0.5 C 400.5,-0.5 408.5,-0.5 416.5,-0.5C 431.04,3.20081 441.54,11.8675 448,25.5C 464.091,15.9024 481.257,13.4024 499.5,18C 515.022,24.8518 524.688,36.5184 528.5,53C 548.429,51.2176 561.929,59.7176 569,78.5C 570.019,82.9635 570.852,87.4635 571.5,92C 566.412,115.518 561.246,139.018 556,162.5C 554.221,168.723 551.888,174.723 549,180.5C 547.629,182.041 546.129,183.375 544.5,184.5C 540.25,185.272 535.917,185.772 531.5,186C 530,187.5 528.5,189 527,190.5C 524.723,195.668 521.89,200.502 518.5,205C 514.454,205.324 511.621,203.491 510,199.5C 506.736,188.049 505.736,176.382 507,164.5C 509,153.833 511,143.167 513,132.5C 514.679,119.063 513.012,106.063 508,93.5C 495.478,76.3265 478.978,70.4932 458.5,76C 452.814,78.2058 447.814,81.3724 443.5,85.5C 444.344,69.1036 452.344,57.2702 467.5,50C 480.112,46.3605 490.945,49.1938 500,58.5C 499.805,56.255 498.638,54.4216 496.5,53C 476.765,41.5752 460.598,45.4085 448,64.5C 446.472,67.4167 445.139,70.4167 444,73.5C 443.661,70.964 443.161,68.464 442.5,66C 450.739,39.5547 468.072,29.888 494.5,37C 468.271,28.0314 450.771,36.8647 442,63.5C 434.112,45.6281 420.612,34.4614 401.5,30C 382.552,26.8913 368.718,33.7246 360,50.5C 355.8,68.0562 358.8,84.3895 369,99.5C 366.12,92.0387 363.454,84.3721 361,76.5C 356.195,45.641 369.362,30.8077 400.5,32C 420.21,36.3877 433.71,47.8877 441,66.5C 442.112,75.072 441.278,83.4054 438.5,91.5C 438.217,71.4333 429.883,55.6 413.5,44C 399.253,36.504 386.42,38.3373 375,49.5C 367.141,60.6818 366.474,72.3485 373,84.5C 373.811,85.9597 374.645,86.293 375.5,85.5C 364.52,65.3216 369.52,50.8216 390.5,42C 404.828,40.0799 416.328,44.9133 425,56.5C 431.289,64.4115 434.789,73.4115 435.5,83.5C 432.646,76.9855 428.646,71.1522 423.5,66C 409.793,59.1195 398.626,61.9528 390,74.5C 387.722,81.0556 388.222,87.3889 391.5,93.5C 387.779,95.1859 384.613,94.5192 382,91.5C 381.289,95.5878 382.456,99.0878 385.5,102C 382.649,101.828 380.149,100.661 378,98.5C 378.473,101.758 378.973,105.091 379.5,108.5C 374.699,108.65 370.033,107.984 365.5,106.5C 350.36,97.2379 342.693,83.5712 342.5,65.5C 345.234,32.6055 361.901,10.6055 392.5,-0.5 Z"/></g>
<g><path style="opacity:1" fill="#31505a" d="M 438.5,91.5 C 438.217,92.2891 437.717,92.9558 437,93.5C 436.545,90.1464 436.045,86.8131 435.5,83.5C 434.789,73.4115 431.289,64.4115 425,56.5C 416.328,44.9133 404.828,40.0799 390.5,42C 369.52,50.8216 364.52,65.3216 375.5,85.5C 374.645,86.293 373.811,85.9597 373,84.5C 366.474,72.3485 367.141,60.6818 375,49.5C 386.42,38.3373 399.253,36.504 413.5,44C 429.883,55.6 438.217,71.4333 438.5,91.5 Z"/></g>
<g><path style="opacity:1" fill="#32515c" d="M 443.5,85.5 C 441.804,87.5248 440.137,89.5248 438.5,91.5C 441.278,83.4054 442.112,75.072 441,66.5C 433.71,47.8877 420.21,36.3877 400.5,32C 369.362,30.8077 356.195,45.641 361,76.5C 363.454,84.3721 366.12,92.0387 369,99.5C 358.8,84.3895 355.8,68.0562 360,50.5C 368.718,33.7246 382.552,26.8913 401.5,30C 420.612,34.4614 434.112,45.6281 442,63.5C 450.771,36.8647 468.271,28.0314 494.5,37C 468.072,29.888 450.739,39.5547 442.5,66C 443.161,68.464 443.661,70.964 444,73.5C 445.139,70.4167 446.472,67.4167 448,64.5C 460.598,45.4085 476.765,41.5752 496.5,53C 498.638,54.4216 499.805,56.255 500,58.5C 490.945,49.1938 480.112,46.3605 467.5,50C 452.344,57.2702 444.344,69.1036 443.5,85.5 Z"/></g>
<g><path style="opacity:0.992" fill="#a1665f" d="M 435.5,83.5 C 436.045,86.8131 436.545,90.1464 437,93.5C 437.717,92.9558 438.217,92.2891 438.5,91.5C 440.137,89.5248 441.804,87.5248 443.5,85.5C 447.814,81.3724 452.814,78.2058 458.5,76C 478.978,70.4932 495.478,76.3265 508,93.5C 513.012,106.063 514.679,119.063 513,132.5C 511,143.167 509,153.833 507,164.5C 505.736,176.382 506.736,188.049 510,199.5C 511.621,203.491 514.454,205.324 518.5,205C 521.89,200.502 524.723,195.668 527,190.5C 528.5,189 530,187.5 531.5,186C 535.917,185.772 540.25,185.272 544.5,184.5C 556.983,187.403 563.317,195.403 563.5,208.5C 562.559,232.627 550.393,242.294 527,237.5C 522.99,269.446 519.49,301.446 516.5,333.5C 515.833,333.5 515.5,333.833 515.5,334.5C 502.832,349.015 486.832,358.181 467.5,362C 444.158,363.167 423.491,356.333 405.5,341.5C 401.153,338.152 397.486,334.152 394.5,329.5C 394.342,326.098 394.676,322.764 395.5,319.5C 423.755,324.2 446.421,315.2 463.5,292.5C 463.167,292.167 462.833,291.833 462.5,291.5C 441.836,302.5 419.836,307.833 396.5,307.5C 373.434,301.265 357.934,286.932 350,264.5C 348.193,249.514 348.193,234.514 350,219.5C 353.271,188.122 356.938,156.789 361,125.5C 361.863,118.974 363.363,112.641 365.5,106.5C 370.033,107.984 374.699,108.65 379.5,108.5C 378.973,105.091 378.473,101.758 378,98.5C 380.149,100.661 382.649,101.828 385.5,102C 382.456,99.0878 381.289,95.5878 382,91.5C 384.613,94.5192 387.779,95.1859 391.5,93.5C 388.222,87.3889 387.722,81.0556 390,74.5C 398.626,61.9528 409.793,59.1195 423.5,66C 428.646,71.1522 432.646,76.9855 435.5,83.5 Z"/></g>
<g><path style="opacity:1" fill="#1f3036" d="M 457.5,120.5 C 466.648,119.079 474.982,120.912 482.5,126C 485.258,128.531 484.925,130.031 481.5,130.5C 472.574,128.518 463.574,127.018 454.5,126C 453.978,125.439 453.645,124.772 453.5,124C 454.686,122.588 456.019,121.421 457.5,120.5 Z"/></g>
<g><path style="opacity:1" fill="#213036" d="M 378.5,120.5 C 386.863,119.624 394.863,120.79 402.5,124C 403.357,124.689 404.023,125.522 404.5,126.5C 402.5,126.833 400.5,127.167 398.5,127.5C 390.507,126.889 382.507,126.389 374.5,126C 373.549,125.282 373.383,124.449 374,123.5C 375.652,122.601 377.152,121.601 378.5,120.5 Z"/></g>
<g><path style="opacity:1" fill="#30505a" d="M 556.5,70.5 C 561.832,77.6654 564.499,85.832 564.5,95C 564.181,111.292 557.681,124.459 545,134.5C 563.273,116.071 567.106,94.7381 556.5,70.5 Z"/></g>
<g><path style="opacity:1" fill="#31525c" d="M 537.5,77.5 C 547.565,92.6986 548.065,108.365 539,124.5C 535.324,129.342 531.158,133.675 526.5,137.5C 525.675,133.878 525.175,130.211 525,126.5C 522.851,129.694 520.018,131.528 516.5,132C 521.445,129.054 524.945,124.888 527,119.5C 527.333,124.5 527.667,129.5 528,134.5C 544.974,117.874 548.141,98.8737 537.5,77.5 Z"/></g>
<g><path style="opacity:1" fill="#1f3036" d="M 377.5,138.5 C 385.45,137.414 392.783,138.914 399.5,143C 400.743,144.154 401.743,145.488 402.5,147C 396.471,145.42 390.305,144.253 384,143.5C 380.005,143.353 376.172,144.02 372.5,145.5C 371.479,144.998 371.312,144.332 372,143.5C 373.73,141.598 375.563,139.931 377.5,138.5 Z"/></g>
<g><path style="opacity:1" fill="#233137" d="M 454.5,148.5 C 457.85,148.335 461.183,148.502 464.5,149C 469.382,150.606 473.382,153.439 476.5,157.5C 476,157.833 475.5,158.167 475,158.5C 465.744,154.134 456.244,153.467 446.5,156.5C 445.479,155.998 445.312,155.332 446,154.5C 448.322,151.605 451.155,149.605 454.5,148.5 Z"/></g>
<g><path style="opacity:1" fill="#1e2f36" d="M 374.5,158.5 C 383.055,158.526 385.721,162.359 382.5,170C 374.329,173.806 370.495,171.306 371,162.5C 372.376,161.295 373.542,159.962 374.5,158.5 Z"/></g>
<g><path style="opacity:1" fill="#1e2f36" d="M 447.5,167.5 C 456.11,167.571 458.776,171.405 455.5,179C 447.329,182.806 443.495,180.306 444,171.5C 444.69,169.65 445.856,168.316 447.5,167.5 Z"/></g>
<g><path style="opacity:0.982" fill="#a1665f" d="M 191.5,454.5 C 190.833,454.5 190.5,454.833 190.5,455.5C 186.386,467.622 183.053,479.955 180.5,492.5C 180.557,493.609 180.89,494.609 181.5,495.5C 182.93,509.2 182.764,522.866 181,536.5C 177.521,545.462 173.021,553.795 167.5,561.5C 162.157,566.844 157.157,572.511 152.5,578.5C 149.208,580.458 146.208,582.791 143.5,585.5C 138.353,588.41 133.019,590.744 127.5,592.5C 123.537,592.911 119.87,592.078 116.5,590C 105.237,579.048 97.7375,565.882 94,550.5C 91.7853,543.141 90.2853,535.641 89.5,528C 92.293,516.659 95.6263,505.492 99.5,494.5C 110.715,459.737 122.215,425.07 134,390.5C 135.5,383.832 137,377.165 138.5,370.5C 128.692,351.553 118.859,332.553 109,313.5C 107.056,309.277 105.389,304.944 104,300.5C 101.784,288.88 106.618,283.213 118.5,283.5C 117.803,274.197 122.136,269.864 131.5,270.5C 132.851,254.818 141.184,248.984 156.5,253C 152.944,231.996 150.777,210.829 150,189.5C 154.096,182.039 159.596,180.705 166.5,185.5C 167.667,187.833 168.833,190.167 170,192.5C 175.156,212.124 180.156,231.791 185,251.5C 197.582,272.663 208.582,294.663 218,317.5C 219.506,324.433 219.839,331.433 219,338.5C 217.775,346.186 216.441,353.853 215,361.5C 207.47,392.587 199.637,423.587 191.5,454.5 Z"/></g>
<g><path style="opacity:1" fill="#203036" d="M 422.5,147.5 C 423.376,147.369 424.043,147.702 424.5,148.5C 416.755,167.65 408.755,186.65 400.5,205.5C 400.529,207.029 401.196,208.196 402.5,209C 407.281,209.574 411.948,210.574 416.5,212C 411.146,212.332 405.813,211.999 400.5,211C 397.651,208.441 396.817,205.274 398,201.5C 405.904,183.359 414.071,165.359 422.5,147.5 Z"/></g>
<g><path style="opacity:1" fill="#7d4d47" d="M 543.5,196.5 C 550.561,198.087 553.894,202.587 553.5,210C 553.295,216.287 550.962,221.62 546.5,226C 542.687,228.269 539.354,227.769 536.5,224.5C 542.846,226.744 547.346,224.411 550,217.5C 550.896,212.051 550.563,206.718 549,201.5C 546.966,198.141 544.632,197.808 542,200.5C 541.7,198.934 542.2,197.601 543.5,196.5 Z"/></g>
<g><path style="opacity:1" fill="#223137" d="M 442.5,216.5 C 442.422,223.485 439.422,229.318 433.5,234C 429.985,235.843 426.318,236.843 422.5,237C 432.053,232.947 438.72,226.114 442.5,216.5 Z"/></g>
<g><path style="opacity:0.988" fill="#7b4b45" d="M 395.5,319.5 C 395.833,315.5 396.167,311.5 396.5,307.5C 419.836,307.833 441.836,302.5 462.5,291.5C 462.833,291.833 463.167,292.167 463.5,292.5C 446.421,315.2 423.755,324.2 395.5,319.5 Z"/></g>
<g><path style="opacity:0.994" fill="#b4e1dc" d="M 394.5,329.5 C 397.486,334.152 401.153,338.152 405.5,341.5C 423.491,356.333 444.158,363.167 467.5,362C 486.832,358.181 502.832,349.015 515.5,334.5C 516.167,334.5 516.5,334.167 516.5,333.5C 546.197,349.347 576.53,364.18 607.5,378C 630.181,387.423 649.347,401.589 665,420.5C 670.074,427.382 673.408,435.049 675,443.5C 691.725,529.576 707.059,615.909 721,702.5C 725.69,729.361 721.023,754.361 707,777.5C 698.171,787.979 687.338,795.813 674.5,801C 657.91,808.63 640.91,815.13 623.5,820.5C 622.861,819.903 622.528,819.07 622.5,818C 626.465,776.863 630.298,735.697 634,694.5C 634.5,686.507 634.666,678.507 634.5,670.5C 635.167,669.833 635.833,669.167 636.5,668.5C 644.033,666.2 651.7,664.367 659.5,663C 656.833,662.333 654.167,662.333 651.5,663C 645.77,664.413 640.103,665.913 634.5,667.5C 634.47,663.382 633.803,659.382 632.5,655.5C 636.182,652.992 640.182,650.992 644.5,649.5C 651.5,647.221 658.5,645.055 665.5,643C 657.795,643.516 650.462,645.349 643.5,648.5C 639.937,649.282 636.603,650.616 633.5,652.5C 631.983,652.489 630.816,651.823 630,650.5C 624.45,640.299 615.95,633.799 604.5,631C 601.146,630.545 597.813,630.045 594.5,629.5C 594.291,628.078 593.791,626.745 593,625.5C 592.517,626.448 592.351,627.448 592.5,628.5C 508.497,629.076 424.497,630.076 340.5,631.5C 316.5,631.5 292.5,631.5 268.5,631.5C 268.596,617.487 268.263,603.487 267.5,589.5C 268.497,572.008 268.83,554.341 268.5,536.5C 268.254,507.832 267.92,479.165 267.5,450.5C 267.83,443.468 267.497,436.468 266.5,429.5C 265.173,446.329 265.173,462.995 266.5,479.5C 266.5,503.167 266.5,526.833 266.5,550.5C 266.5,551.167 266.5,551.833 266.5,552.5C 250.727,569.106 234.393,585.273 217.5,601C 191.413,622.586 161.413,633.919 127.5,635C 111.078,631.976 96.2451,625.476 83,615.5C 76.5523,605.49 72.8857,594.49 72,582.5C 71.4414,573.503 70.9414,564.503 70.5,555.5C 70.4694,550.765 70.9694,546.099 72,541.5C 77.0114,527.427 83.3448,514.094 91,501.5C 93.4162,498.577 96.2496,496.243 99.5,494.5C 95.6263,505.492 92.293,516.659 89.5,528C 90.2853,535.641 91.7853,543.141 94,550.5C 97.7375,565.882 105.237,579.048 116.5,590C 119.87,592.078 123.537,592.911 127.5,592.5C 132.705,592.866 137.705,592.033 142.5,590C 158.891,577.946 173.725,564.112 187,548.5C 190.73,542.123 193.563,535.456 195.5,528.5C 197.195,538.041 197.861,547.708 197.5,557.5C 196.579,564.103 195.246,570.77 193.5,577.5C 193.737,580.063 194.237,580.063 195,577.5C 196.329,572.518 197.496,567.518 198.5,562.5C 201.483,540.096 197.316,519.096 186,499.5C 184.629,496.734 182.796,494.401 180.5,492.5C 183.053,479.955 186.386,467.622 190.5,455.5C 191.167,455.5 191.5,455.167 191.5,454.5C 211.89,427.412 232.056,400.079 252,372.5C 259.857,362.821 269.691,355.988 281.5,352C 319.142,344.283 356.808,336.783 394.5,329.5 Z"/></g>
<g><path style="opacity:1" fill="#804f49" d="M 161.5,263.5 C 164.636,273.696 167.636,284.029 170.5,294.5C 179.343,294.102 187.676,295.935 195.5,300C 188.646,298.225 181.646,296.725 174.5,295.5C 173.5,295.833 172.5,296.167 171.5,296.5C 176.404,305.21 179.071,314.544 179.5,324.5C 184.5,325.003 184.167,325.336 178.5,325.5C 176.623,332.616 171.956,335.449 164.5,334C 162.089,331.302 159.423,330.968 156.5,333C 150.843,334.718 146.343,333.218 143,328.5C 140.921,324.007 138.588,319.674 136,315.5C 133.928,320.143 130.428,321.643 125.5,320C 119.725,316.716 114.391,312.883 109.5,308.5C 109.667,308.167 109.833,307.833 110,307.5C 115.224,311.723 120.724,315.556 126.5,319C 132.829,319.668 135.329,316.834 134,310.5C 129.41,303.307 125.41,295.973 122,288.5C 130.757,301.674 138.757,315.341 146,329.5C 149.989,333.228 154.156,333.228 158.5,329.5C 150.902,311.207 143.402,292.874 136,274.5C 135.333,273.5 135.333,272.5 136,271.5C 143.667,289.833 151.333,308.167 159,326.5C 161.919,332.025 166.419,333.858 172.5,332C 174.378,330.457 175.878,328.624 177,326.5C 177.667,322.5 177.667,318.5 177,314.5C 170.071,297.991 164.904,280.991 161.5,263.5 Z"/></g>
<g><path style="opacity:1" fill="#324b50" d="M 405.5,341.5 C 401.562,344.935 397.729,348.602 394,352.5C 394.446,350.117 395.612,347.95 397.5,346C 399.817,343.843 402.484,342.343 405.5,341.5 Z"/></g>
<g><path style="opacity:1" fill="#283f45" d="M 509.5,343.5 C 509.897,342.475 510.563,342.308 511.5,343C 516.609,347.063 519.442,352.229 520,358.5C 517.804,352.49 514.304,347.49 509.5,343.5 Z"/></g>
<g><path style="opacity:1" fill="#334a50" d="M 481.5,359.5 C 484.081,362.32 485.914,365.654 487,369.5C 487.667,371.5 487.667,373.5 487,375.5C 484.859,370.244 483.026,364.91 481.5,359.5 Z"/></g>
<g><path style="opacity:1" fill="#273d43" d="M 434.5,359.5 C 435.043,359.56 435.376,359.893 435.5,360.5C 431.781,364.473 429.281,369.14 428,374.5C 427.954,368.588 430.12,363.588 434.5,359.5 Z"/></g>
<g><path style="opacity:1" fill="#709191" d="M 267.5,450.5 C 266.506,459.986 266.173,469.652 266.5,479.5C 265.173,462.995 265.173,446.329 266.5,429.5C 267.497,436.468 267.83,443.468 267.5,450.5 Z"/></g>
<g><path style="opacity:1" fill="#557274" d="M 611.5,492.5 C 611.672,491.508 611.338,490.842 610.5,490.5C 611.914,478.685 613.748,467.018 616,455.5C 615.132,468.015 613.632,480.349 611.5,492.5 Z"/></g>
<g><path style="opacity:1" fill="#7d9c99" d="M 181.5,495.5 C 188.484,505.431 193.15,516.431 195.5,528.5C 193.563,535.456 190.73,542.123 187,548.5C 173.725,564.112 158.891,577.946 142.5,590C 137.705,592.033 132.705,592.866 127.5,592.5C 133.019,590.744 138.353,588.41 143.5,585.5C 145.017,585.489 146.184,584.823 147,583.5C 147.414,583.957 147.914,584.291 148.5,584.5C 149.458,582.216 150.792,580.216 152.5,578.5C 155.056,577.457 157.223,575.79 159,573.5C 162.467,569.88 165.3,565.88 167.5,561.5C 173.021,553.795 177.521,545.462 181,536.5C 182.764,522.866 182.93,509.2 181.5,495.5 Z"/></g>
<g><path style="opacity:1" fill="#324a4f" d="M 180.5,492.5 C 182.796,494.401 184.629,496.734 186,499.5C 197.316,519.096 201.483,540.096 198.5,562.5C 197.549,561.081 197.216,559.415 197.5,557.5C 197.861,547.708 197.195,538.041 195.5,528.5C 193.15,516.431 188.484,505.431 181.5,495.5C 180.89,494.609 180.557,493.609 180.5,492.5 Z"/></g>
<g><path style="opacity:1" fill="#324a4f" d="M 610.5,490.5 C 611.338,490.842 611.672,491.508 611.5,492.5C 608.079,520.866 604.413,549.2 600.5,577.5C 599.662,577.158 599.328,576.492 599.5,575.5C 602.758,547.104 606.425,518.77 610.5,490.5 Z"/></g>
<g><path style="opacity:1" fill="#395357" d="M 267.5,450.5 C 267.92,479.165 268.254,507.832 268.5,536.5C 267.833,541.167 267.167,545.833 266.5,550.5C 266.5,526.833 266.5,503.167 266.5,479.5C 266.173,469.652 266.506,459.986 267.5,450.5 Z"/></g>
<g><path style="opacity:1" fill="#263c42" d="M 268.5,536.5 C 268.83,554.341 268.497,572.008 267.5,589.5C 266.582,577.197 266.248,564.864 266.5,552.5C 266.5,551.833 266.5,551.167 266.5,550.5C 267.167,545.833 267.833,541.167 268.5,536.5 Z"/></g>
<g><path style="opacity:1" fill="#314246" d="M 167.5,561.5 C 165.3,565.88 162.467,569.88 159,573.5C 157.223,575.79 155.056,577.457 152.5,578.5C 157.157,572.511 162.157,566.844 167.5,561.5 Z"/></g>
<g><path style="opacity:1" fill="#537072" d="M 197.5,557.5 C 197.216,559.415 197.549,561.081 198.5,562.5C 197.496,567.518 196.329,572.518 195,577.5C 194.237,580.063 193.737,580.063 193.5,577.5C 195.246,570.77 196.579,564.103 197.5,557.5 Z"/></g>
<g><path style="opacity:1" fill="#466164" d="M 599.5,575.5 C 599.328,576.492 599.662,577.158 600.5,577.5C 598.735,592.884 596.568,608.217 594,623.5C 594.862,607.281 596.695,591.281 599.5,575.5 Z"/></g>
<g><path style="opacity:1" fill="#546a6b" d="M 152.5,578.5 C 150.792,580.216 149.458,582.216 148.5,584.5C 147.914,584.291 147.414,583.957 147,583.5C 146.184,584.823 145.017,585.489 143.5,585.5C 146.208,582.791 149.208,580.458 152.5,578.5 Z"/></g>
<g><path style="opacity:0.276" fill="#090e0f" d="M 594.5,629.5 C 595.021,633.481 595.354,637.481 595.5,641.5C 595.5,642.5 595.5,643.5 595.5,644.5C 593.585,644.784 591.919,644.451 590.5,643.5C 591.167,638.5 591.833,633.5 592.5,628.5C 592.351,627.448 592.517,626.448 593,625.5C 593.791,626.745 594.291,628.078 594.5,629.5 Z"/></g>
<g><path style="opacity:1" fill="#7e9e9b" d="M 592.5,628.5 C 591.833,633.5 591.167,638.5 590.5,643.5C 483.833,643.5 377.167,643.5 270.5,643.5C 270.5,639.833 270.5,636.167 270.5,632.5C 294.006,632.831 317.339,632.498 340.5,631.5C 424.497,630.076 508.497,629.076 592.5,628.5 Z"/></g>
<g><path style="opacity:1" fill="#7d9e9b" d="M 594.5,629.5 C 597.813,630.045 601.146,630.545 604.5,631C 615.95,633.799 624.45,640.299 630,650.5C 630.816,651.823 631.983,652.489 633.5,652.5C 630.235,654.472 626.902,656.472 623.5,658.5C 621.138,653.957 618.138,649.79 614.5,646C 608.082,644.382 601.748,642.882 595.5,641.5C 595.354,637.481 595.021,633.481 594.5,629.5 Z"/></g>
<g><path style="opacity:1" fill="#9bc1bd" d="M 268.5,631.5 C 292.5,631.5 316.5,631.5 340.5,631.5C 317.339,632.498 294.006,632.831 270.5,632.5C 270.5,636.167 270.5,639.833 270.5,643.5C 270.167,643.5 269.833,643.5 269.5,643.5C 269.354,639.481 269.021,635.481 268.5,631.5 Z"/></g>
<g><path style="opacity:1" fill="#43555a" d="M 595.5,641.5 C 601.748,642.882 608.082,644.382 614.5,646C 618.138,649.79 621.138,653.957 623.5,658.5C 623.158,659.338 622.492,659.672 621.5,659.5C 620.046,656.592 618.546,653.592 617,650.5C 615.269,648.383 613.102,646.883 610.5,646C 485.834,645.5 361.167,645.333 236.5,645.5C 236.5,645.167 236.5,644.833 236.5,644.5C 247.321,643.505 258.321,643.172 269.5,643.5C 269.833,643.5 270.167,643.5 270.5,643.5C 377.167,643.5 483.833,643.5 590.5,643.5C 591.919,644.451 593.585,644.784 595.5,644.5C 595.5,643.5 595.5,642.5 595.5,641.5 Z"/></g>
<g><path style="opacity:1" fill="#e0e0e0" d="M 236.5,645.5 C 361.167,645.333 485.834,645.5 610.5,646C 613.102,646.883 615.269,648.383 617,650.5C 618.546,653.592 620.046,656.592 621.5,659.5C 621.5,662.833 621.5,666.167 621.5,669.5C 620.527,671.948 620.194,674.615 620.5,677.5C 619.468,691.142 618.801,704.809 618.5,718.5C 617.523,721.287 617.19,724.287 617.5,727.5C 615.459,760.497 613.459,793.497 611.5,826.5C 611.5,830.167 611.5,833.833 611.5,837.5C 610.214,851.006 609.047,864.673 608,878.5C 606.066,884.767 601.9,888.601 595.5,890C 479.833,890.667 364.167,890.667 248.5,890C 242.667,888.167 238.833,884.333 237,878.5C 235.501,859.19 234.334,839.857 233.5,820.5C 230.929,769.487 228.096,718.487 225,667.5C 224.768,666.263 224.268,665.263 223.5,664.5C 223.5,662.833 223.5,661.167 223.5,659.5C 225.074,657.898 225.741,655.898 225.5,653.5C 228.016,649.326 231.683,646.659 236.5,645.5 Z"/></g>
<g><path style="opacity:1" fill="#425c60" d="M 644.5,649.5 C 644.5,648.833 644.167,648.5 643.5,648.5C 650.462,645.349 657.795,643.516 665.5,643C 658.5,645.055 651.5,647.221 644.5,649.5 Z"/></g>
<g><path style="opacity:0.667" fill="#1b3036" d="M 236.5,644.5 C 236.5,644.833 236.5,645.167 236.5,645.5C 231.683,646.659 228.016,649.326 225.5,653.5C 227.036,647.969 230.703,644.969 236.5,644.5 Z"/></g>
<g><path style="opacity:0.925" fill="#4a585d" d="M 225.5,653.5 C 225.741,655.898 225.074,657.898 223.5,659.5C 223.259,657.102 223.926,655.102 225.5,653.5 Z"/></g>
<g><path style="opacity:1" fill="#779795" d="M 632.5,655.5 C 633.803,659.382 634.47,663.382 634.5,667.5C 640.103,665.913 645.77,664.413 651.5,663C 654.167,662.333 656.833,662.333 659.5,663C 651.7,664.367 644.033,666.2 636.5,668.5C 631.723,669.804 627.223,671.804 623,674.5C 620.058,664.721 623.225,658.387 632.5,655.5 Z"/></g>
<g><path style="opacity:1" fill="#1c2f35" d="M 643.5,648.5 C 644.167,648.5 644.5,648.833 644.5,649.5C 640.182,650.992 636.182,652.992 632.5,655.5C 623.225,658.387 620.058,664.721 623,674.5C 627.223,671.804 631.723,669.804 636.5,668.5C 635.833,669.167 635.167,669.833 634.5,670.5C 630.157,672.088 625.99,674.088 622,676.5C 621.503,674.19 621.337,671.857 621.5,669.5C 621.5,666.167 621.5,662.833 621.5,659.5C 622.492,659.672 623.158,659.338 623.5,658.5C 626.902,656.472 630.235,654.472 633.5,652.5C 636.603,650.616 639.937,649.282 643.5,648.5 Z"/></g>
<g><path style="opacity:1" fill="#7c9c99" d="M 621.5,669.5 C 621.337,671.857 621.503,674.19 622,676.5C 625.99,674.088 630.157,672.088 634.5,670.5C 634.666,678.507 634.5,686.507 634,694.5C 630.298,735.697 626.465,776.863 622.5,818C 622.528,819.07 622.861,819.903 623.5,820.5C 623.5,820.833 623.5,821.167 623.5,821.5C 620.012,821.54 616.679,822.207 613.5,823.5C 614.967,794.159 616.634,764.826 618.5,735.5C 618.497,732.645 618.164,729.978 617.5,727.5C 617.19,724.287 617.523,721.287 618.5,718.5C 618.336,721.187 618.503,723.854 619,726.5C 619.979,713.343 620.812,700.176 621.5,687C 621.498,683.648 621.165,680.482 620.5,677.5C 620.194,674.615 620.527,671.948 621.5,669.5 Z"/></g>
<g><path style="opacity:1" fill="#32464b" d="M 620.5,677.5 C 621.165,680.482 621.498,683.648 621.5,687C 620.812,700.176 619.979,713.343 619,726.5C 618.503,723.854 618.336,721.187 618.5,718.5C 618.801,704.809 619.468,691.142 620.5,677.5 Z"/></g>
<g><path style="opacity:1" fill="#7d878a" d="M 237.5,703.5 C 236.518,706.962 236.185,710.629 236.5,714.5C 235.342,704.675 235.175,694.675 236,684.5C 236.897,690.806 237.397,697.139 237.5,703.5 Z"/></g>
<g><path style="opacity:1" fill="#405055" d="M 237.5,703.5 C 238,715.161 238.333,726.827 238.5,738.5C 238.817,742.702 238.483,746.702 237.5,750.5C 236.977,738.506 236.643,726.506 236.5,714.5C 236.185,710.629 236.518,706.962 237.5,703.5 Z"/></g>
<g><path style="opacity:1" fill="#32464b" d="M 617.5,727.5 C 618.164,729.978 618.497,732.645 618.5,735.5C 616.634,764.826 614.967,794.159 613.5,823.5C 612.596,824.209 612.263,825.209 612.5,826.5C 612.167,826.5 611.833,826.5 611.5,826.5C 613.459,793.497 615.459,760.497 617.5,727.5 Z"/></g>
<g><path style="opacity:1" fill="#fcfcfc" d="M 434.5,747.5 C 437.141,749.804 439.808,752.138 442.5,754.5C 445.904,760.714 446.238,767.047 443.5,773.5C 438.344,783.24 430.344,786.74 419.5,784C 408.312,778.456 404.479,769.623 408,757.5C 414.179,747.382 423.013,744.048 434.5,747.5 Z"/></g>
<g><path style="opacity:1" fill="#4d5b61" d="M 434.5,747.5 C 438.429,748.431 441.095,750.764 442.5,754.5C 439.808,752.138 437.141,749.804 434.5,747.5 Z"/></g>
<g><path style="opacity:1" fill="#697478" d="M 238.5,738.5 C 239.485,742.634 239.818,746.968 239.5,751.5C 238.512,756.64 238.179,761.974 238.5,767.5C 237.511,762.025 237.178,756.358 237.5,750.5C 238.483,746.702 238.817,742.702 238.5,738.5 Z"/></g>
<g><path style="opacity:1" fill="#37474d" d="M 434.5,747.5 C 423.013,744.048 414.179,747.382 408,757.5C 404.479,769.623 408.312,778.456 419.5,784C 430.344,786.74 438.344,783.24 443.5,773.5C 443.833,773.5 444.167,773.5 444.5,773.5C 438.887,784.967 429.887,788.801 417.5,785C 402.653,775.519 400.653,763.853 411.5,750C 416.982,745.092 423.315,743.426 430.5,745C 432.32,745.2 433.653,746.034 434.5,747.5 Z"/></g>
<g><path style="opacity:1" fill="#9aa1a3" d="M 442.5,754.5 C 444.41,755.975 445.576,757.975 446,760.5C 446.939,765.136 446.439,769.469 444.5,773.5C 444.167,773.5 443.833,773.5 443.5,773.5C 446.238,767.047 445.904,760.714 442.5,754.5 Z"/></g>
<g><path style="opacity:0.507" fill="#293b42" d="M 223.5,664.5 C 224.268,665.263 224.768,666.263 225,667.5C 228.096,718.487 230.929,769.487 233.5,820.5C 232.763,817.275 232.097,813.941 231.5,810.5C 228.558,761.902 225.891,713.236 223.5,664.5 Z"/></g>
<g><path style="opacity:0.992" fill="#1a2e35" d="M 231.5,810.5 C 232.097,813.941 232.763,817.275 233.5,820.5C 234.334,839.857 235.501,859.19 237,878.5C 238.833,884.333 242.667,888.167 248.5,890C 364.167,890.667 479.833,890.667 595.5,890C 601.9,888.601 606.066,884.767 608,878.5C 609.047,864.673 610.214,851.006 611.5,837.5C 611.187,840.247 611.52,842.914 612.5,845.5C 617.224,840.001 620.224,833.667 621.5,826.5C 621.833,825.833 622.167,825.167 622.5,824.5C 646.877,814.984 671.544,806.151 696.5,798C 726.359,789.821 755.693,791.487 784.5,803C 810.614,815.801 826.114,836.634 831,865.5C 836.226,898.083 828.56,927.083 808,952.5C 783.027,981.084 751.86,999.584 714.5,1008C 755.499,1008.5 796.499,1008.67 837.5,1008.5C 837.5,1009.5 837.5,1010.5 837.5,1011.5C 792.165,1011.33 746.832,1011.5 701.5,1012C 677.034,1019.1 652.367,1025.27 627.5,1030.5C 608.492,1025.11 589.825,1018.61 571.5,1011C 566.845,1010.5 562.179,1010.33 557.5,1010.5C 556.5,1010.5 555.5,1010.5 554.5,1010.5C 542.043,1047.2 529.377,1083.87 516.5,1120.5C 465.536,1107.59 414.869,1093.42 364.5,1078C 362.934,1077.24 361.601,1077.4 360.5,1078.5C 353.053,1075.79 345.386,1074.13 337.5,1073.5C 334.867,1070.89 331.867,1068.72 328.5,1067C 319.389,1063.85 310.389,1060.52 301.5,1057C 268.917,1042.87 236.25,1029.04 203.5,1015.5C 200.904,1014.24 198.237,1013.08 195.5,1012C 130.168,1011.5 64.8342,1011.33 -0.5,1011.5C -0.5,1010.5 -0.5,1009.5 -0.5,1008.5C 61.8342,1008.67 124.168,1008.5 186.5,1008C 142.475,988.822 98.8085,968.822 55.5,948C 29.1102,931.42 13.6102,907.587 9,876.5C 0.984712,841.739 11.818,814.905 41.5,796C 64.3198,781.794 88.9865,776.794 115.5,781C 155.005,787.709 193.672,797.543 231.5,810.5 Z"/></g>
<g><path style="opacity:1" fill="#33444a" d="M 239.5,751.5 C 240.318,765.484 240.651,779.484 240.5,793.5C 240.768,795.099 240.434,796.432 239.5,797.5C 239.323,787.494 238.99,777.494 238.5,767.5C 238.179,761.974 238.512,756.64 239.5,751.5 Z"/></g>
<g><path style="opacity:1" fill="#525f64" d="M 240.5,793.5 C 241.493,802.318 241.827,811.318 241.5,820.5C 241.806,823.385 241.473,826.052 240.5,828.5C 240.125,818.168 239.792,807.835 239.5,797.5C 240.434,796.432 240.768,795.099 240.5,793.5 Z"/></g>
<g><path style="opacity:0.282" fill="#040707" d="M 623.5,821.5 C 622.89,822.391 622.557,823.391 622.5,824.5C 622.167,825.167 621.833,825.833 621.5,826.5C 618.854,827.487 616.188,828.487 613.5,829.5C 612.614,828.675 612.281,827.675 612.5,826.5C 612.263,825.209 612.596,824.209 613.5,823.5C 616.679,822.207 620.012,821.54 623.5,821.5 Z"/></g>
<g><path style="opacity:1" fill="#304f59" d="M 694.5,821.5 C 707.504,821.333 720.504,821.5 733.5,822C 737.221,822.62 740.888,823.453 744.5,824.5C 744,824.833 743.5,825.167 743,825.5C 719.268,820.92 695.768,821.92 672.5,828.5C 669.937,828.263 669.937,827.763 672.5,827C 679.945,825.084 687.278,823.251 694.5,821.5 Z"/></g>
<g><path style="opacity:0.998" fill="#0f1f23" d="M 611.5,826.5 C 611.833,826.5 612.167,826.5 612.5,826.5C 612.281,827.675 612.614,828.675 613.5,829.5C 616.188,828.487 618.854,827.487 621.5,826.5C 620.224,833.667 617.224,840.001 612.5,845.5C 611.52,842.914 611.187,840.247 611.5,837.5C 611.5,833.833 611.5,830.167 611.5,826.5 Z"/></g>
<g><path style="opacity:1" fill="#858d90" d="M 241.5,820.5 C 242.657,828.656 242.823,836.99 242,845.5C 240.971,839.877 240.471,834.21 240.5,828.5C 241.473,826.052 241.806,823.385 241.5,820.5 Z"/></g>
<g><path style="opacity:1" fill="#31515b" d="M 690.5,834.5 C 711.106,832.559 731.106,835.059 750.5,842C 738.418,838.903 726.085,836.903 713.5,836C 696.346,834.934 679.68,837.268 663.5,843C 646.318,851.423 628.985,859.59 611.5,867.5C 611.167,867.167 610.833,866.833 610.5,866.5C 627.215,857.866 644.215,849.699 661.5,842C 671.159,838.937 680.826,836.437 690.5,834.5 Z"/></g>
<g><path style="opacity:1" fill="#304f59" d="M 172.5,822.5 C 172.897,821.475 173.563,821.308 174.5,822C 189.106,834.603 203.106,847.937 216.5,862C 222.623,864.229 228.623,866.729 234.5,869.5C 222.786,866.958 212.119,861.791 202.5,854C 181.941,842.479 159.941,835.813 136.5,834C 161.569,833.856 184.569,840.689 205.5,854.5C 196.078,842.753 185.078,832.086 172.5,822.5 Z"/></g>
<g><path style="opacity:1" fill="#31515b" d="M 290.5,891.5 C 322.551,905.69 355.051,919.023 388,931.5C 428.644,922.547 469.144,913.047 509.5,903C 521.106,899.632 532.439,895.799 543.5,891.5C 545.527,891.338 547.527,891.505 549.5,892C 539.484,895.339 529.484,898.672 519.5,902C 476.817,912.337 434.151,922.671 391.5,933C 447.221,956.272 503.054,979.439 559,1002.5C 559.49,1003.79 559.657,1005.13 559.5,1006.5C 558.596,1007.21 558.263,1008.21 558.5,1009.5C 557.325,1009.72 556.325,1009.39 555.5,1008.5C 556.167,1007.17 556.833,1005.83 557.5,1004.5C 467.403,966.521 377.07,929.021 286.5,892C 287.793,891.51 289.127,891.343 290.5,891.5 Z"/></g>
<g><path style="opacity:1" fill="#1a2e35" d="M 290.5,891.5 C 374.833,891.5 459.167,891.5 543.5,891.5C 532.439,895.799 521.106,899.632 509.5,903C 469.144,913.047 428.644,922.547 388,931.5C 355.051,919.023 322.551,905.69 290.5,891.5 Z"/></g>
<g><path style="opacity:1" fill="#8aafae" d="M 559.5,1006.5 C 567.632,1008.9 567.298,1009.9 558.5,1009.5C 558.263,1008.21 558.596,1007.21 559.5,1006.5 Z"/></g>
<g><path style="opacity:0.991" fill="#b4e1dc" d="M 557.5,1010.5 C 562.179,1010.33 566.845,1010.5 571.5,1011C 589.825,1018.61 608.492,1025.11 627.5,1030.5C 627.5,1031.17 627.833,1031.5 628.5,1031.5C 605.94,1099.18 583.607,1166.84 561.5,1234.5C 555.679,1212.57 552.345,1190.23 551.5,1167.5C 553.026,1165.87 555.026,1165.04 557.5,1165C 561.833,1164.67 566.167,1164.33 570.5,1164C 564.249,1160.9 557.915,1160.73 551.5,1163.5C 550.54,1156.92 550.207,1150.26 550.5,1143.5C 552.026,1140.82 554.36,1138.99 557.5,1138C 561.179,1137.21 564.846,1136.38 568.5,1135.5C 567.975,1134.81 567.308,1134.31 566.5,1134C 563.5,1133.33 560.5,1133.33 557.5,1134C 554.671,1135.36 552.004,1136.86 549.5,1138.5C 549.5,1131.83 549.5,1125.17 549.5,1118.5C 550.053,1115.41 551.72,1112.91 554.5,1111C 558.172,1108.16 562.172,1105.83 566.5,1104C 557.557,1102.8 551.223,1106.3 547.5,1114.5C 539.763,1112.37 532.096,1110.03 524.5,1107.5C 526.046,1100.03 529.046,1093.2 533.5,1087C 532.049,1087.26 530.716,1087.1 529.5,1086.5C 539.314,1061.35 548.647,1036.02 557.5,1010.5 Z"/></g>
<g><path style="opacity:0.988" fill="#b4e1dc" d="M 203.5,1015.5 C 236.25,1029.04 268.917,1042.87 301.5,1057C 310.389,1060.52 319.389,1063.85 328.5,1067C 331.867,1068.72 334.867,1070.89 337.5,1073.5C 328.618,1077.44 319.618,1081.11 310.5,1084.5C 311.406,1075.64 308.072,1068.98 300.5,1064.5C 300.167,1064.83 299.833,1065.17 299.5,1065.5C 304.161,1071.47 307.495,1078.14 309.5,1085.5C 302.001,1088.11 294.667,1091.11 287.5,1094.5C 283.244,1086.37 276.577,1083.04 267.5,1084.5C 272.294,1086.73 276.961,1089.23 281.5,1092C 283.464,1093.45 284.797,1095.28 285.5,1097.5C 286.125,1103.84 286.792,1110.17 287.5,1116.5C 287.137,1117.18 286.804,1117.85 286.5,1118.5C 283.052,1115.86 279.219,1114.19 275,1113.5C 271.866,1113.11 269.366,1114.11 267.5,1116.5C 275.114,1116.48 281.78,1118.81 287.5,1123.5C 287.5,1130.17 287.5,1136.83 287.5,1143.5C 282.651,1141.68 277.651,1141.18 272.5,1142C 270.884,1142.62 269.551,1143.62 268.5,1145C 275.013,1145.17 281.347,1145.67 287.5,1146.5C 287.667,1159.84 287.5,1173.17 287,1186.5C 286.336,1196.32 284.836,1205.99 282.5,1215.5C 255.221,1149.59 227.888,1083.59 200.5,1017.5C 201.71,1017.07 202.71,1016.4 203.5,1015.5 Z"/></g>
<g><path style="opacity:0.942" fill="#1b2f36" d="M 200.5,1017.5 C 227.888,1083.59 255.221,1149.59 282.5,1215.5C 282.021,1219.29 280.354,1222.46 277.5,1225C 276.216,1225.68 275.049,1225.52 274,1224.5C 243.64,1158.42 213.473,1092.25 183.5,1026C 188.851,1022.66 194.518,1019.82 200.5,1017.5 Z"/></g>
<g><path style="opacity:0.943" fill="#1b2f36" d="M 628.5,1031.5 C 633.887,1033.3 639.221,1035.3 644.5,1037.5C 645.614,1038.72 645.781,1040.06 645,1041.5C 620.62,1109.37 595.787,1177.03 570.5,1244.5C 569.5,1244.5 568.5,1244.5 567.5,1244.5C 564.511,1241.87 562.511,1238.54 561.5,1234.5C 583.607,1166.84 605.94,1099.18 628.5,1031.5 Z"/></g>
<g><path style="opacity:1" fill="#e2f2f0" d="M 568.5,1044.5 C 577.207,1044.04 580.707,1048.04 579,1056.5C 576.252,1060.62 572.419,1062.12 567.5,1061C 561.867,1054.95 562.2,1049.45 568.5,1044.5 Z"/></g>
<g><path style="opacity:1" fill="#1d3239" d="M 310.5,1084.5 C 310.5,1085.17 310.167,1085.5 309.5,1085.5C 307.495,1078.14 304.161,1071.47 299.5,1065.5C 299.833,1065.17 300.167,1064.83 300.5,1064.5C 308.072,1068.98 311.406,1075.64 310.5,1084.5 Z"/></g>
<g><path style="opacity:1" fill="#21363d" d="M 287.5,1094.5 C 289.066,1097.49 288.399,1098.49 285.5,1097.5C 284.797,1095.28 283.464,1093.45 281.5,1092C 276.961,1089.23 272.294,1086.73 267.5,1084.5C 276.577,1083.04 283.244,1086.37 287.5,1094.5 Z"/></g>
<g><path style="opacity:0.418" fill="#34555f" d="M 557.5,1010.5 C 548.647,1036.02 539.314,1061.35 529.5,1086.5C 530.716,1087.1 532.049,1087.26 533.5,1087C 529.046,1093.2 526.046,1100.03 524.5,1107.5C 523.503,1107.47 522.836,1107.97 522.5,1109C 520.854,1113.12 519.354,1117.29 518,1121.5C 517.275,1122.06 516.442,1122.39 515.5,1122.5C 463.337,1109.44 411.67,1094.78 360.5,1078.5C 361.601,1077.4 362.934,1077.24 364.5,1078C 414.869,1093.42 465.536,1107.59 516.5,1120.5C 529.377,1083.87 542.043,1047.2 554.5,1010.5C 555.5,1010.5 556.5,1010.5 557.5,1010.5 Z"/></g>
<g><path style="opacity:1" fill="#1b3137" d="M 549.5,1118.5 C 548.5,1118.5 547.5,1118.5 546.5,1118.5C 546.433,1117.04 546.766,1115.71 547.5,1114.5C 551.223,1106.3 557.557,1102.8 566.5,1104C 562.172,1105.83 558.172,1108.16 554.5,1111C 551.72,1112.91 550.053,1115.41 549.5,1118.5 Z"/></g>
<g><path style="opacity:1" fill="#22383e" d="M 286.5,1118.5 C 289.726,1119.88 290.059,1121.54 287.5,1123.5C 281.78,1118.81 275.114,1116.48 267.5,1116.5C 269.366,1114.11 271.866,1113.11 275,1113.5C 279.219,1114.19 283.052,1115.86 286.5,1118.5 Z"/></g>
<g><path style="opacity:1" fill="#1b3037" d="M 550.5,1143.5 C 548.153,1142.39 547.82,1140.73 549.5,1138.5C 552.004,1136.86 554.671,1135.36 557.5,1134C 560.5,1133.33 563.5,1133.33 566.5,1134C 567.308,1134.31 567.975,1134.81 568.5,1135.5C 564.846,1136.38 561.179,1137.21 557.5,1138C 554.36,1138.99 552.026,1140.82 550.5,1143.5 Z"/></g>
<g><path style="opacity:1" fill="#1f343a" d="M 287.5,1143.5 C 289.985,1144.74 289.985,1145.74 287.5,1146.5C 281.347,1145.67 275.013,1145.17 268.5,1145C 269.551,1143.62 270.884,1142.62 272.5,1142C 277.651,1141.18 282.651,1141.68 287.5,1143.5 Z"/></g>
<g><path style="opacity:1" fill="#1d3138" d="M 551.5,1167.5 C 548.978,1166.34 548.978,1165 551.5,1163.5C 557.915,1160.73 564.249,1160.9 570.5,1164C 566.167,1164.33 561.833,1164.67 557.5,1165C 555.026,1165.04 553.026,1165.87 551.5,1167.5 Z"/></g>
</svg>
