<?xml version="1.0" encoding="UTF-8"?>
<!DOCTYPE svg PUBLIC "-//W3C//DTD SVG 1.1//EN" "http://www.w3.org/Graphics/SVG/1.1/DTD/svg11.dtd">
<svg xmlns="http://www.w3.org/2000/svg" version="1.1" width="67px" height="67px" style="shape-rendering:geometricPrecision; text-rendering:geometricPrecision; image-rendering:optimizeQuality; fill-rule:evenodd; clip-rule:evenodd" xmlns:xlink="http://www.w3.org/1999/xlink">
<g><path style="opacity:0.746" fill="#fdfffd" d="M 56.5,-0.5 C 59.8333,-0.5 63.1667,-0.5 66.5,-0.5C 66.5,3.83333 66.5,8.16667 66.5,12.5C 62.5378,30.2602 59.2044,48.2602 56.5,66.5C 53.8333,66.5 51.1667,66.5 48.5,66.5C 44.4507,62.1253 39.784,58.4586 34.5,55.5C 31.0163,58.8619 27.0163,61.0286 22.5,62C 19.8045,54.9141 17.3045,47.7474 15,40.5C 9.88634,38.0261 4.71967,35.6927 -0.5,33.5C -0.5,31.1667 -0.5,28.8333 -0.5,26.5C 18.6858,17.7389 37.6858,8.7389 56.5,-0.5 Z M 42.5,15.5 C 44.6456,15.6964 44.8122,16.6964 43,18.5C 36.4328,25.311 30.0995,32.311 24,39.5C 22.0833,34.1115 18.2499,30.9448 12.5,30C 22.7134,25.3919 32.7134,20.5586 42.5,15.5 Z M 55.5,15.5 C 55.2428,29.1484 53.4094,42.815 50,56.5C 43.998,51.993 38.1646,47.3263 32.5,42.5C 39.9374,33.2829 47.6041,24.2829 55.5,15.5 Z M 25.5,47.5 C 27.0847,48.0024 27.5847,49.0024 27,50.5C 25.9614,49.7562 25.4614,48.7562 25.5,47.5 Z"/></g>
</svg>
