<?xml version="1.0" encoding="UTF-8"?>
<!DOCTYPE svg PUBLIC "-//W3C//DTD SVG 1.1//EN" "http://www.w3.org/Graphics/SVG/1.1/DTD/svg11.dtd">
<svg xmlns="http://www.w3.org/2000/svg" version="1.1" width="67px" height="67px" style="shape-rendering:geometricPrecision; text-rendering:geometricPrecision; image-rendering:optimizeQuality; fill-rule:evenodd; clip-rule:evenodd" xmlns:xlink="http://www.w3.org/1999/xlink">
<g><path style="opacity:0.757" fill="#fefffe" d="M 12.5,-0.5 C 26.1667,-0.5 39.8333,-0.5 53.5,-0.5C 59.7332,1.39833 64.0665,5.39833 66.5,11.5C 66.5,25.8333 66.5,40.1667 66.5,54.5C 65.3793,56.7415 64.2126,59.0748 63,61.5C 60.3178,63.585 57.4845,65.2517 54.5,66.5C 40.1667,66.5 25.8333,66.5 11.5,66.5C 5.39833,64.0665 1.39833,59.7332 -0.5,53.5C -0.5,39.8333 -0.5,26.1667 -0.5,12.5C 1.5,5.83333 5.83333,1.5 12.5,-0.5 Z M 16.5,2.5 C 29.5521,2.09941 42.5521,2.59941 55.5,4C 60.2277,5.39564 62.7277,8.5623 63,13.5C 63.6667,26.5 63.6667,39.5 63,52.5C 62.1667,58.6667 58.6667,62.1667 52.5,63C 39.8333,63.6667 27.1667,63.6667 14.5,63C 6.90759,62.3264 3.07425,58.1597 3,50.5C 2.33333,38.8333 2.33333,27.1667 3,15.5C 4.00971,7.43096 8.50971,3.09763 16.5,2.5 Z M 10.5,22.5 C 12.2884,21.3775 14.2884,21.2109 16.5,22C 18.269,26.3712 20.4356,30.5378 23,34.5C 28.2371,38.9639 30.7371,37.6306 30.5,30.5C 30.5831,27.4605 29.9164,24.6271 28.5,22C 30.8098,21.5034 33.1432,21.3367 35.5,21.5C 35.3343,25.8461 35.501,30.1794 36,34.5C 36.5613,35.0219 37.228,35.3552 38,35.5C 42.9119,32.3625 46.4119,28.0292 48.5,22.5C 50.4213,21.359 52.4213,21.1923 54.5,22C 51.8269,26.3497 49.1602,30.683 46.5,35C 49.4864,38.6555 52.4864,42.3221 55.5,46C 53.1667,46.6667 50.8333,46.6667 48.5,46C 45.8653,42.6843 42.6986,40.1843 39,38.5C 37.8926,38.5852 36.8926,38.9186 36,39.5C 35.5034,41.8098 35.3367,44.1432 35.5,46.5C 27.2858,46.3084 21.1191,42.6418 17,35.5C 14.7874,31.0748 12.6207,26.7415 10.5,22.5 Z"/></g>
<g><path style="opacity:0.7" fill="#fefffe" d="M 8.5,18.5 C 11.8499,18.335 15.1832,18.5017 18.5,19C 21.1125,23.7235 23.6125,28.5569 26,33.5C 26.8873,29.1516 26.3873,24.985 24.5,21C 24.6448,20.228 24.9781,19.5613 25.5,19C 29.5,18.3333 33.5,18.3333 37.5,19C 38.9298,20.9074 39.5965,23.0741 39.5,25.5C 39.155,27.5659 38.9884,29.5659 39,31.5C 41.8773,27.582 44.3773,23.4153 46.5,19C 49.8333,18.3333 53.1667,18.3333 56.5,19C 57.5762,20.7261 57.7429,22.5594 57,24.5C 54.8176,28.0102 52.651,31.5102 50.5,35C 52.2799,37.7838 54.4465,40.2838 57,42.5C 59.1511,45.2162 58.9845,47.7162 56.5,50C 53.8333,50.6667 51.1667,50.6667 48.5,50C 45.657,46.8246 42.4903,43.9913 39,41.5C 40.1952,45.2381 39.0285,48.0714 35.5,50C 24.3865,49.3461 16.5532,43.8461 12,33.5C 9.01835,28.7652 7.85168,23.7652 8.5,18.5 Z M 10.5,22.5 C 12.6207,26.7415 14.7874,31.0748 17,35.5C 21.1191,42.6418 27.2858,46.3084 35.5,46.5C 35.3367,44.1432 35.5034,41.8098 36,39.5C 36.8926,38.9186 37.8926,38.5852 39,38.5C 42.6986,40.1843 45.8653,42.6843 48.5,46C 50.8333,46.6667 53.1667,46.6667 55.5,46C 52.4864,42.3221 49.4864,38.6555 46.5,35C 49.1602,30.683 51.8269,26.3497 54.5,22C 52.4213,21.1923 50.4213,21.359 48.5,22.5C 46.4119,28.0292 42.9119,32.3625 38,35.5C 37.228,35.3552 36.5613,35.0219 36,34.5C 35.501,30.1794 35.3343,25.8461 35.5,21.5C 33.1432,21.3367 30.8098,21.5034 28.5,22C 29.9164,24.6271 30.5831,27.4605 30.5,30.5C 30.7371,37.6306 28.2371,38.9639 23,34.5C 20.4356,30.5378 18.269,26.3712 16.5,22C 14.2884,21.2109 12.2884,21.3775 10.5,22.5 Z"/></g>
</svg>
