<?xml version="1.0" encoding="UTF-8"?>
<!DOCTYPE svg PUBLIC "-//W3C//DTD SVG 1.1//EN" "http://www.w3.org/Graphics/SVG/1.1/DTD/svg11.dtd">
<svg xmlns="http://www.w3.org/2000/svg" version="1.1" width="67px" height="67px" style="shape-rendering:geometricPrecision; text-rendering:geometricPrecision; image-rendering:optimizeQuality; fill-rule:evenodd; clip-rule:evenodd" xmlns:xlink="http://www.w3.org/1999/xlink">
<g><path style="opacity:0.859" fill="#fefffe" d="M -0.5,-0.5 C 6.83333,-0.5 14.1667,-0.5 21.5,-0.5C 26.2375,5.96519 30.7375,12.6319 35,19.5C 40.9097,13.3153 46.0763,6.64861 50.5,-0.5C 54.8333,-0.5 59.1667,-0.5 63.5,-0.5C 55.6027,8.56408 48.2693,18.0641 41.5,28C 49.6814,40.3344 58.0147,52.5011 66.5,64.5C 66.5,65.1667 66.5,65.8333 66.5,66.5C 59.1667,66.5 51.8333,66.5 44.5,66.5C 39.9255,59.0238 35.0922,51.6905 30,44.5C 23.9176,51.6815 18.0843,59.0148 12.5,66.5C 8.5,66.5 4.5,66.5 0.5,66.5C 8.28448,56.4353 15.9511,46.2686 23.5,36C 16.0415,24.0554 8.04147,12.5554 -0.5,1.5C -0.5,0.833333 -0.5,0.166667 -0.5,-0.5 Z M 13.5,6.5 C 15.1439,6.28649 16.6439,6.61983 18,7.5C 29.4631,24.9277 41.2964,42.0943 53.5,59C 50.6917,59.9201 48.5251,59.0867 47,56.5C 35.5858,39.934 24.4191,23.2673 13.5,6.5 Z"/></g>
</svg>
